<svg xmlns="http://www.w3.org/2000/svg" viewBox="0 0 444.53 332.28"><defs><style>.cls-1{fill:#102b42;}.cls-2{fill:#f3f4f5;}.cls-3{fill:#d1d2d3;}.cls-4{fill:#e7e5e7;}.cls-5{fill:#0e1c43;}.cls-6{fill:#b1b9c7;}.cls-7{fill:#7f8ca1;}.cls-8{fill:#c72127;}.cls-9{fill:#102132;}.cls-10{fill:#184563;}.cls-11{fill:#0b142d;}.cls-12{fill:#fdd49a;}.cls-13{fill:#e6e7e7;}.cls-14{fill:#0b142e;}.cls-15{fill:#261a10;}.cls-16{fill:#35230f;}.cls-17{fill:#fdfdfd;}.cls-18{fill:#fcc06b;}.cls-19{fill:#e2e4e4;}.cls-20{fill:#2b1d10;}.cls-21{fill:#1d2a5c;}.cls-22{fill:#c62127;}.cls-23{fill:#c7252b;}.cls-24{fill:#c8c8c9;}.cls-25{fill:#fefefe;}</style></defs><title>Asset 3</title><g id="Layer_2" data-name="Layer 2"><g id="Layer_1-2" data-name="Layer 1"><path class="cls-1" d="M255.87,51.27c2.57-6.78,5-9.05,8.58-7.78.72.25,1.74,1.54,1.79,1.5,1.26-1.23,4.2-1.41,2.61-4.47-1.71-3.29-1.38-5.71,2.67-7.56s7.25-4.35,9.68,1.74c.64,1.62,1.9-.43,2.92-.35,1.55.12,2.2-.68,1.89-2.07-1.13-5.05,1.84-5.33,5.56-5,2.14.19,4.31.14,6.46.19,2,.8,2,2.21,1.17,3.84.06,1-.94,2.67.79,2.85,1.36.14,3.06,1.09,4.24-1.18,2.57-4.94,6.23-2.25,9.11-.48s5.84,4,2.21,7.84c-1,1.06-.22,1.78.51,2.47.91.86,1.59,2.18,3.25.85,1.94-1.54,4.71-2.1,6.09-.06,1.82,2.67,4.43,5.29,3.69,9.21-.25,1.33-1.11,1.42-1.9,1.87-1.24.71-3,1.21-1.92,3.17.63,1.19.94,2.86,3.06,2.48,4.34-.77,5.16,1.76,4.7,5.32-.43,3.31,2,8.51-4.89,7.63-2.42-.3-1.71,1.79-2.47,2.79-1.53,2,.22,2.12,1.27,2.65,3.63,1.85,3.95,4.73,1.55,7.44-1.88,2.13-1.75,7.39-8.06,4.26a102,102,0,0,1,10.61,18c1,.76,1.67,1.62,1,2.94a96.08,96.08,0,0,1,4.13,25.86A38.21,38.21,0,0,1,333,152.3c-2.55,6.3-2.22,12,1.92,17.71,3.69,5.14,6.13,11.14,10.1,16.16a2.78,2.78,0,0,1,1.16,2.16c-.57,1.49.64,2.52,1.16,3.61,3.47,7.32,1.95,11-5.86,13.51-5.45,1.78-6.81,4-5,9.62,1.55,4.84,2.49,9.09-3.33,11.74-1.25.57-.73,1.59-.43,2.86.78,3.33,1.15,7-1.69,9.68-5.05,4.84-2.46,10.44-1.52,15.69,1.07,5.9-1.18,11.29-6.76,13.19-9.78,3.36-19.78,2.42-29.78,1.5-11.94-1.1-25.15,4.79-21.09,20.16,1.65,6.27-2.06,9.45-8.52,8.17-20.91-4.14-40.24-12.59-59.18-21.87-11.68-5.73-23.31-11.83-33.07-20.76,3-5.08,7.88-7.89,13-10.44,7.21-3,13.94-7.06,20.89-10.62,16.63-8.53,33.89-15.51,51.37-22,20-7.48,37.05-19.29,48.79-37.24,13.51-20.65,18.38-43.34,12.05-67.74-.42-1.6.1-4.45-3.18-3.93-3.14,1.64-6.2,2.4-9.2-.38-1.86-1.72-3-.7-3.53,1.32-1.33,4.91-5.34,4.12-8.94,4.28s-6.26-.59-6.74-4.82c-.17-1.47-1.49-2.79-2.79-1.39-4.73,5.14-8.89,2.53-13.14-.56-2.45-2.21-1-5.52-2.07-7.82-1.28-2.77-5.12.22-7.63-1.82-4.18-3.4-5.69-8.42-2.91-13,1.42-2.32.9-3.32-1.54-3.75-3.9-.68-3.86-3.71-3.69-6.54.2-3.23-1.44-7.4,3.42-8.76,3.29-.93,3.12-2.28,1-4.39A3.3,3.3,0,0,1,255.87,51.27Z"/><path class="cls-2" d="M183.94,246.28c-4.88,2.21-8.61,6-12.85,9.15v-2.18a44.38,44.38,0,0,1,4.29-7.52c2.71-3.9,4.89-8.13,7.64-12,1.53-2.25,3.08-4.49,4.47-6.82,3.8-5.45,7.08-11.24,10.82-16.72a53.73,53.73,0,0,0,4.05-6.17c2.07-3.49,4.42-6.8,6.62-10.2.75-1.14,1.57-2.22,2.27-3.4,4.84-7.59,9.69-15.2,14.69-22.68,2-2.83,3.6-6,5.51-8.87,1.32-1.75,2.32-3.83,4.69-4.48a6.94,6.94,0,0,1,3.7.18,17.18,17.18,0,0,0,5.4,1.75c1.46.31,2.9.67,4.33,1.07,3.31,1,5.92.59,6.85-3.33.81-3.42-.77-6.08-4.34-7.18a34.64,34.64,0,0,0-3.93-.52,20.77,20.77,0,0,1-4.86-1.46,2.22,2.22,0,0,1-.83-1.16c-.17-1.84,1-3.11,1.86-4.55.65-1,1.35-1.9,2-2.9,7.07-10.74,14-21.61,21.08-32.32.73-1.08,1.24-2.36,2.68-2.75,2.1-.31,2.87,1.92,4.68,2.4,2.61.7,5.2,1.93,6.38-1.73.77-2.41,2.28-1.68,4-1.64,2.56,0,2.05,1.81,1.87,3.09-.46,3.34.91,4.44,4.1,4a20.87,20.87,0,0,1,4.47,0c3,.26,4.85-.6,4.51-4.08-.13-1.4-.42-2.77,2-3.11,1.78-.26,2.26-.17,3.17,1.51,2.35,4.35,5.77,1.18,8.79.77,2,2.68,2,5.93,2.25,9,1.53,23.23-4.68,44.61-16.92,64.07-11.9,18.92-29.81,30.65-50.52,38-21,7.42-40.27,18.15-59.27,29.52C187.67,244.12,185.79,245.22,183.94,246.28Z"/><path class="cls-3" d="M270.06,101.22c-7,12.51-15.41,24.13-23.1,36.21-7.78-.87-10.82-3-12.21-10.6s-5-13.55-12-17.2c-.71-.72-1.32-1.48-.71-2.57,5.12-1.11,4.61-5.45,5.22-9.15a3,3,0,0,1,.87-1.08c1.45-.85,3.25-.54,4.7-1.35,1.08-.61,2.08-1.54.78-2.67-5.23-4.52-1.07-8.1,1.07-11.9,3.19-1.43,6.64-2.71,3.89-7.3-6.62-7-14.95-8.64-24.09-7.84-.66.06-1.6.14-1.8.66-1.93,4.9-8.59,7.91-5.84,14.65a14.26,14.26,0,0,1,.4,2.91c0,.73.06,1.45.06,2.18-.1,1.67.68,3.29.27,5-1.25,2.48-3.35,4.18-5.47,5.85a7.53,7.53,0,0,1-2.91,1c-14.66,1.8-17.25,4.6-17.76,19.2a205.84,205.84,0,0,1-3,29.73,25,25,0,0,1-6.74,13.68c-3.08,3-3.47,6.06-2.48,9.94.76,3,2.57,5.81,2.4,9.09-.25.64-1,1.41-1.36,1-3.42-3.19-7.38-1.28-11.12-1.36A111.94,111.94,0,0,1,145,145.22c-.91-.74-1.5-1.59-1-2.83-3.48-24.83,5.55-45.85,20-65.21l-.07,0c7-6,13.68-12.39,21.88-16.85,8.8-4.79,18.26-7.51,28.08-9.14,2.88,1.64,5.34,4.78,9.28,1.82,1.3-1,2.2.66,3.08,1.69,2.59,3,4.17,3,6.63-.06,1-1.25,2.07-2.81,3.54-1.84,4.16,2.7,6.35-.14,8.8-2.61,3.57.18,7.21-.38,10.67,1,.28,1.83-.34,4.1,2.39,4.7,1.61.35,2,1.47,1.76,3a2.49,2.49,0,0,1-2.55,2.44,2.33,2.33,0,0,1-.59-.08c-3.59-.59-4.16,1.3-3.87,4.24a22,22,0,0,1,0,5c-.38,3,.62,4.28,3.78,3.89,1.07-.13,2.94-.85,3.16,1.21.15,1.48.64,3-1.54,4.11-3.25,1.61-3,4.64-1.09,7.06s3,7.85,8.4,4.66c1.1-.65,2.22-1.17,3.34.34.76,1,1.55,2.22.7,3.06C267.32,97.22,269.33,99.13,270.06,101.22Z"/><path class="cls-4" d="M98.76,30.31h37a14.55,14.55,0,0,1,3.49.08c3.63.93,7.34,2.18,7.68,6.64s-2.85,6.27-6.5,7.64a15,15,0,0,1-5.41.63H61a14.63,14.63,0,0,1-6.3-1.08c-3.3-1.49-4.91-3.84-4.67-7.42s2.79-4.92,5.8-6a16.27,16.27,0,0,1,5.42-.53Z"/><path class="cls-5" d="M143.85,195.1c-3.61.71-8.45-1.4-10.12,1s-.54,7-.71,10.63c-.25,5.76,2.41,13.47-1,16.72-3,2.86-10.7.84-16.33.88-6.61.06-6.61,0-6.62-6.4,0-6.16-.15-12.32.07-18.47.11-3.09-.52-4.63-4-4.17a61.56,61.56,0,0,1-7.44,0c1.65-3.71,4.52-5.49,6.71-7.78,4.72-4.92,9.63-9.67,14.44-14.51,1.21-1.22,2.09-2.46,4-.54,6.94,7.17,14,14.18,21.06,21.27A10.21,10.21,0,0,1,143.85,195.1Z"/><path class="cls-5" d="M378.29,129c-3.81.29-8.64-.51-9.49,1-1.52,2.65-.7,6.68-.75,10.14-.06,4-.19,8,0,12,.16,2.72-.85,3.36-3.38,3.27-4.82-.18-9.65-.22-14.47,0-2.74.13-3.33-.86-3.26-3.4.17-6-.23-12,.15-18,.27-4.05-1.13-5.29-4.92-4.74a48.41,48.41,0,0,1-5.65,0c6.94-6.94,13.23-13.34,19.66-19.59,1.07-1,2.4-.35,3.47.73C365.72,116.52,371.8,122.55,378.29,129Z"/><path class="cls-6" d="M91.56,153.1C81,153.56,81,153.56,81,162.7c0,4.34-.08,8.67,0,13,.06,2.4-.49,3.74-3.29,3.65-4.82-.16-9.66-.16-14.49,0-2.81.09-3.31-1.29-3.27-3.67.09-6-.17-12,.1-18,.16-3.6-1.14-4.75-4.57-4.44-1.34.11-3.4.9-4-.83-.56-1.57,1.4-2.44,2.4-3.45,4.54-4.64,9.19-9.19,13.75-13.82,1.56-1.58,3-2.65,5-.64C78.71,140.45,84.73,146.36,91.56,153.1Z"/><path class="cls-1" d="M245.2,50.27c.25,2.59-1.55,3.51-3.32,4.89-2.63,2-3.57.4-5-1.27-.75-.86-2.65-1.17-2.64.41,0,5-3.37,3.92-6.23,4-3.47.1-2.74-3-3.22-5.09-5.52,4-8.19,3.45-10.88-2,1.61-2.39,2-4-1.87-3-2.73.7-3.48-1.44-4.81-3.15-1.53-2-.42-3.46.54-4.62,1.72-2.09,2.2-3.12-1.18-3.23-2.59-.09-2.53-2.08-2.53-4s0-3.81,2.56-4c4.53-.28,2.76-2.49,1-3.91-2.42-1.89-.83-3.38,0-5s2.09-3.57,4.29-2.65c2.47,1,2.85.33,2.41-1.91-.36-1.88-.48-3.66,1.81-4.52,2-.77,4.07-2.27,6.05.12,1,1.24,2.74,1.46,2.79-.18.11-3.54,1.85-4.2,4.78-4s3.52.87,5.19,5.36c2.72-3.58,7.13-4,8.6-.78,1.65,3.58,2.54,6.36,6.93,6.28.1,0,.22.23.32.36,2.58,3.18,1,6.09-.57,9,3.57.71,5.52,2.21,5.09,6.52-.37,3.69-3.12,3-5.8,3.84,3.18,2.67,4.22,5.19,1.73,8.47-1.19,1.56-2.06,2.36-4,1.6C244.35,46.86,243.72,47.72,245.2,50.27Z"/><path class="cls-4" d="M383,264.31H355.11c-4.72,0-7.05-2.38-7.07-6.95s2.33-7,7-7h55.84c4.42,0,8.08,3.2,8.1,6.95s-3.64,7-8,7C401.65,264.34,392.34,264.31,383,264.31Z"/><path class="cls-1" d="M159.12,179.33c1.31.22,2-.72,2.89-1.44,2.6-2.12,5.09-1.58,6.85,1,.63.94,1,1.5,2.07,1.37,3.32.81,5.1,2.87,5.15,6.34-1.26,1.46-3.12,1.85-4.78,2.58-9.09,4-14.65,12.86-13.9,22.17.82,10.21,7.52,18.07,17.38,20.86,3,.85,6.41-.06,9.09,2.11l-7.82,12.15c-4.06,0-2.42-4.8-5.06-6-4.4,4.17-7.75,4-11.67-.3-1.42-1.57-1.86-3.13-.71-4.84.64-1,1.75-1.6.28-2.68-.86-.62-1.37-1.93-2.87-.86-3.43,2.45-6.43.34-7.66-2.26s-3.83-6.51,1.43-8.57c1.64-.64.24-1.89.28-2.87.09-1.72-.94-1.94-2.2-1.76-4.19.62-5.21-1.49-4.88-5.22.29-3.35-.71-7.36,4.91-6.82.92.09,2,.23,2.13-1.31s-.08-2.63-1.37-3.48c-2-1.32-3.73-2.91-1.85-5.38s2.44-7.43,7.62-5.64c3.87,1.33,5-.5,3.41-3.55C156.39,182.22,158.69,181.16,159.12,179.33Z"/><path class="cls-6" d="M409.87,95c-8.83.5-8.83.5-8.84,7.52,0,1,.08,2,0,3-.35,4.08,1.93,10.09-.94,11.85-4.43,2.71-10.63.76-16.08.84-2.23,0-1.94-1.86-1.95-3.31v-12c0-7.33,0-7.33-8.15-8,5.79-5.79,11.14-11.1,16.44-16.46,1.26-1.27,2-.41,2.84.43C398.39,84,403.63,89,409.87,95Z"/><path class="cls-4" d="M95.59,64.32c4.15,0,8.31-.12,12.46,0,4.91.17,7.07,2.66,7,7.69-.08,4.74-2.22,7.15-6.94,7.23q-12.47.21-24.92,0c-4.91-.07-8.18-3.38-8-7.69s3.25-7.11,8-7.25C87.28,64.22,91.43,64.32,95.59,64.32Z"/><path class="cls-4" d="M383.41,20.32h11.95c4.49-.06,7.29,1.79,7.66,6.53.34,4.25-2.34,8.16-6.61,8.31-9,.33-17.92.31-26.87,0-3.87-.13-7.07-4.38-6.36-8.14s2.71-6.76,7.29-6.7C374.79,20.37,379.1,20.32,383.41,20.32Z"/><path class="cls-4" d="M413.08,241.31c-4,0-8,.11-12,0-5.06-.18-8.18-3.47-8-8.24.14-4.6,2.55-6.69,8-6.72q12-.07,24,0a7.7,7.7,0,0,1,8,7.14c.24,4-3,7.41-7.44,7.83H413.08Z"/><path class="cls-4" d="M146.21,283.32c4.16,0,8.33-.13,12.48,0,3.94.15,7.25,1.24,7.37,6.19.11,4.76-2.39,8.49-6.89,8.65-8.47.3-17,.3-25.45,0-4.29-.16-8-4.79-7.61-8.41s3.94-6.41,8.62-6.43C138.56,283.3,142.39,283.31,146.21,283.32Z"/><path class="cls-5" d="M144,142.4c.36.94,1.34,1.65,1,2.83L93,179.88Q66.6,197.54,40.28,215.29C26.94,224.22,13.72,233.22.34,242.22c-.5-2.25-.35-3.55,1.83-5,28.25-18.83,56.36-37.88,84.53-56.83q26.94-18.16,54-36.17A36.49,36.49,0,0,1,144,142.4Z"/><path class="cls-4" d="M162.37,15.31c-4.32,0-8.64-.11-13,0-4.06.13-5.77-2.37-6.25-5.71-.52-3.69.37-7.3,4.59-8.23C157-.63,166.5-.12,175.87.88c4.61.49,7.51,4.62,7,8.13-.61,4.32-3.23,6.24-8.6,6.26C170.34,15.33,166.35,15.31,162.37,15.31Z"/><path class="cls-7" d="M135.36,128.39c-8.25-1.5-7.39,3-7.35,7.13.08,8.83,0,8.61-8.84,8.89-4.11.14-5.77-1-5.19-5.17a63.18,63.18,0,0,0,.08-6.46c.13-2.7.13-5-3.74-4.52-2.15.27-3-.84-1.17-2.48,4.1-3.76,7.85-11.41,12.12-10.55C126.18,116.22,129.94,123,135.36,128.39Z"/><path class="cls-5" d="M332.08,111.42l-1-2.94,59.86-40.16c.81-.54,1.56-1.16,2.37-1.7,5.9-4,5.9-3.94,3-10.46,5.73,1.16,11-1.48,16.81-.65-1.84,5.51-5.05,10-7.61,14.73-.36,0-.91,0-.95-.13-1.69-5.39-4.06-4.64-8.16-1.83-20.22,13.88-40.7,27.38-61.08,41Z"/><path class="cls-8" d="M369.45,62.32c-5.73-1.28-5.78,1.94-5.42,5.48a4.18,4.18,0,0,1,0,1c-.3,2.41,1.21,6.14-.73,7-2.81,1.2-6.46.46-9.76.51-1.38,0-1.5-1-1.5-2v-5c0-6.48,0-6.48-6.23-7.6,2.93-4.22,6.84-7.25,10.2-10.75,1.09-1.13,2.34-.73,3.47.35,3.33,3.19,6.73,6.3,10.1,9.45Z"/><path class="cls-5" d="M444.53,122.32l-7.47,14.8c-2.81-1.37-2.36-7.93-7.69-4-.18.14-1.05-.18-1.15-.44-.34-1-.41-2.16.63-2.64,1.91-.86,2-2.19.88-3.46-4-4.43.81-4,2.55-4.19C436.06,122,439.94,122.32,444.53,122.32Z"/><path class="cls-8" d="M335.52,5.32c-2.33,4.65-4.31,8.34-6,12.14-1,2.3-2,2.25-3.3.35-2.11-3.2-4.12-6.45-6.19-9.68-1.15-1.79-1.29-2.91,1.45-2.84C325.87,5.4,330.3,5.32,335.52,5.32Z"/><path class="cls-8" d="M104.67,229.78c-2.62,5.41-4.63,9.78-6.87,14-.63,1.19-1.64,2.79-3,0a66.65,66.65,0,0,0-5.75-9c-2.19-3-.86-3.5,2.09-3.59C95.35,231.14,99.62,232.16,104.67,229.78Z"/><path class="cls-3" d="M171,240.47c1.72-.31,3.32-.45,3,2.11a3.4,3.4,0,0,0,2,3.9c-1.49,2.39-2.51,5.12-5,6.77Q171,246.86,171,240.47Z"/><path class="cls-5" d="M71.19,285.3a2.12,2.12,0,0,1-2-1.83c-.09-1.9,1.76-2.07,3-2.64s1.75.69,1.75,1.39C73.75,283.77,72.37,284.53,71.19,285.3Z"/><path class="cls-5" d="M404,149.6c-.83,1.05-1.5,2.56-3.11,2.58a1.77,1.77,0,0,1-1.74-1.8s0-.1,0-.15c.3-1.88,2.18-2,3.57-2.55C403.06,147.56,404.05,148.51,404,149.6Z"/><path class="cls-5" d="M127.26,246.48c-1.26-.64-2.24-1.12-2.13-2.24.19-1.8,2-2,3.2-2.5.89-.35,1.94.9,1.55,1.7A13.82,13.82,0,0,1,127.26,246.48Z"/><path class="cls-5" d="M427,134.27c-.33,1.92-2,2.14-3.26,2.63-.87.34-1.87-.84-1.56-1.74a3.57,3.57,0,0,1,3-2.72A2,2,0,0,1,427,134.27Z"/><path class="cls-5" d="M16.77,319.68c.24.27,1.17.84,1.13,1.33a3.34,3.34,0,0,1-3,3.21,1.75,1.75,0,0,1-1.73-1.78,1.55,1.55,0,0,1,0-.22C13.39,320.53,15.08,320.29,16.77,319.68Z"/><path class="cls-5" d="M370,172.27c-.33,1.92-2,2.14-3.26,2.63-.87.34-1.87-.84-1.56-1.74a3.57,3.57,0,0,1,3-2.72A2,2,0,0,1,370,172.27Z"/><path class="cls-5" d="M407.41,148.22c-1.79.24-2.36-.13-2.36-1.2a2.42,2.42,0,0,1,2.17-2.65h.13c1.17-.17,2.44.69,2.33,1.33A3.85,3.85,0,0,1,407.41,148.22Z"/><path class="cls-5" d="M395.24,156.27c-1.63,0-1.57-1.53-1.68-2.13-.4-2,2.05-1.49,2.85-2.57.52.53,1.52,1.1,1.49,1.59C397.79,154.78,396.38,155.52,395.24,156.27Z"/><path class="cls-8" d="M309.25,24.22c-1.52.15-2.22-.14-2.21-1.5,0-1.84,1.75-1.7,2.69-2.24s2,.59,2.11,1.45C312.09,24.07,309.56,23.08,309.25,24.22Z"/><path class="cls-5" d="M393.19,157.11a4.75,4.75,0,0,1-3.59,2.17c-.94.19-1.5-.24-1.56-1.31-.11-2.09,1.8-2.05,2.92-2.5S392.44,156.41,393.19,157.11Z"/><path class="cls-5" d="M378.67,167.22a2.05,2.05,0,0,1-2.45-1.52c-.24-2.06,1.91-1.7,3-2.29.88-.48,1.76,0,1.84,1.44C381.18,166.9,378.82,165.93,378.67,167.22Z"/><path class="cls-5" d="M372.78,171a1.5,1.5,0,0,1-1.58-1.31c-.24-1.79,1.33-2.67,2.53-3.24,1.38-.65,1.44,1.08,1.67,1.83C376.08,170.48,373.7,170,372.78,171Z"/><path class="cls-5" d="M356.61,178.31c1.13,0,2.33.94,2.07,1.51-.59,1.24-1.53,2.57-3.34,2.5-1.11,0-1.37-.69-1.28-1.61a2.39,2.39,0,0,1,2.36-2.41Z"/><path class="cls-8" d="M73.23,249.67a1.37,1.37,0,0,1,1.59,1.11s0,.08,0,.12c.32,1.8-1.27,2.64-2.44,3.23-1.34.69-1.43-1-1.7-1.74C69.94,250.11,72.39,250.72,73.23,249.67Z"/><path class="cls-5" d="M119.47,251.34a35.65,35.65,0,0,1-4.14,2.62c-.23.11-1.56-.93-1.19-1.81.57-1.31,1.48-2.68,3-2.68C117.88,249.47,118.56,250.56,119.47,251.34Z"/><path class="cls-5" d="M3.48,332.28c-.48-.66-1.39-1.34-1.3-1.87a3.57,3.57,0,0,1,2.87-3c1.36-.28,1.44,1.52,1.52,2.09C6.82,331.5,4.45,331,3.48,332.28Z"/><path class="cls-5" d="M63,290.63a29.51,29.51,0,0,1-3.7,2.33c-.23.11-1.56-.93-1.19-1.81.57-1.31,1.48-2.66,3.06-2.7C62.11,288.42,62.86,289.31,63,290.63Z"/><path class="cls-5" d="M40,305.84a2.41,2.41,0,0,1-2.35,2.47h-.11c-1.17.08-2.42-1.07-2.23-1.4.67-1.23,1.5-2.6,3.29-2.59C39.67,304.32,40.1,304.81,40,305.84Z"/><path class="cls-8" d="M78.94,125.77c-.63.67-1.08,1.73-2,1.41-1.39-.49-2.69-1.45-2.73-3.08,0-.56,1.08-1.65,1.57-1.6C77.63,122.69,77.47,125,78.94,125.77Z"/><path class="cls-8" d="M80.79,131.29a2.21,2.21,0,0,1-2.6-1.69c-.27-1.26.77-2,2-2.25,2-.46,2.12,1.33,2.44,2.3S81.8,131.16,80.79,131.29Z"/><path class="cls-5" d="M359.24,176.91a5,5,0,0,1,2.76-2.53c.93-.23,2.06-.25,2,1.3a2.4,2.4,0,0,1-2.18,2.62h-.14C360.54,178.47,359.94,177.73,359.24,176.91Z"/><path class="cls-8" d="M321.94,15.49a2.55,2.55,0,0,1-2.56,1.81c-1.07-.06-2.21-.74-2-1.54.36-1.11,1.3-2.44,2.78-2.3A2,2,0,0,1,321.94,15.49Z"/><path class="cls-8" d="M316.67,19.09c-1,.9-1.56,2.48-3.1,2-.82-.23-1.86-1.17-1.39-2.25a2.39,2.39,0,0,1,3-1.48l.16.06C316.07,17.72,316.79,18.15,316.67,19.09Z"/><path class="cls-8" d="M65,258.3a2.51,2.51,0,0,1-2.35,2c-1.17.13-2.39-.8-2.26-1.35A3.2,3.2,0,0,1,63,256.43C64.11,256.32,64.63,257.3,65,258.3Z"/><path class="cls-5" d="M40.87,303.79c.89-1.68,1.51-3.46,3.7-3.23.52.06,1.44,1.6,1.31,1.75C44.67,303.8,43.21,304.91,40.87,303.79Z"/><path class="cls-5" d="M53.94,296.81c-1.32.38-1.27-1.26-1.34-1.62-.36-2,1.69-1.83,2.74-2.46.8-.48,1.52.67,1.57,1.25C57.1,295.92,55.39,296.22,53.94,296.81Z"/><path class="cls-8" d="M67.63,253.4a2,2,0,0,1,2.23,1.53c.37,1.84-1.64,1.63-2.55,2.21s-1.93-.59-2.11-1.45C64.82,253.84,67.11,254.46,67.63,253.4Z"/><path class="cls-5" d="M122.51,245.37c1.09,0,1.47.33,1.51,1.15.09,2-1.4,2.89-2.8,3.69-.6.35-1.1-.29-1.18-1.09C119.84,247,121.78,246.54,122.51,245.37Z"/><path class="cls-5" d="M65.62,289.22c-1.83.31-1.82-1.17-1.92-1.87-.24-1.73,1.83-1.55,2.66-2.56.54-.67,1.46.63,1.53,1.19C68.08,287.74,66.19,288.14,65.62,289.22Z"/><path class="cls-5" d="M79.79,278.85c-.72,1.53-2.35,1.74-3.59,2.33-1,.46-1.23-.71-1.13-1.55a2.34,2.34,0,0,1,2.36-2.32h.23A2.31,2.31,0,0,1,79.79,278.85Z"/><path class="cls-5" d="M421,138.29a2.59,2.59,0,0,1-2.38,2c-1.19.14-2.42-.87-2.29-1.35a3.39,3.39,0,0,1,2.66-2.55C420.11,136.29,420.63,137.31,421,138.29Z"/><path class="cls-8" d="M134,94.92c-.22,2.13-1.85,2.43-3.11,2.85s-1.42-1.41-1.42-1.76c0-1.84,2-1.52,3.05-2.38A11.4,11.4,0,0,1,134,94.92Z"/><path class="cls-5" d="M387,161.35c-.54,1.27-1.92,1.56-3,1.82a1.71,1.71,0,0,1-1.86-1.54,1.77,1.77,0,0,1,0-.23c.13-1.51,1.8-1.63,2.86-1.93S386.64,160.27,387,161.35Z"/><path class="cls-5" d="M415,142.37a2.46,2.46,0,0,1-2.77,1.92c-1.48-.13-1.32-1.3-1.09-2.13a2.39,2.39,0,0,1,2.48-1.85C415,140.32,415.09,141.22,415,142.37Z"/><path class="cls-8" d="M88,126.12c-.24,1.58-1.82,1.61-2.82,2s-1.93-.72-2-1.6c-.12-1.68,1.71-1.62,2.7-2.07S87.47,125.22,88,126.12Z"/><path class="cls-5" d="M85.47,274c-1.46,1.48-1.82,3.66-4.19,2.94-.71-.22-1.65-1.39-1.09-1.88C81.43,274,82.87,272.65,85.47,274Z"/><path class="cls-5" d="M89,269.08a17.09,17.09,0,0,1,1.77,1.63c-.84,1.13-1.52,2.52-3.24,2.6-1,.05-1.47-.35-1.52-1.37C85.94,269.81,88.11,270.35,89,269.08Z"/><path class="cls-5" d="M105.46,257.44c1.24-.21,2.2.59,2.14,1.11a3.27,3.27,0,0,1-2.78,2.72c-.78.17-1.55.1-1.78-1.06C102.56,257.9,105.07,258.56,105.46,257.44Z"/><path class="cls-8" d="M71.75,117.22A4.6,4.6,0,0,1,74,120.77c.16.81-.17,1.84-1.25,1.4a4,4,0,0,1-2.57-2.71C69.94,118.28,71.15,118,71.75,117.22Z"/><path class="cls-5" d="M141.11,234.76c-.61,1.83-1.47,3.36-3.54,3.37-.49,0-1.52-1.55-1.4-1.71C137.34,234.87,138.78,233.72,141.11,234.76Z"/><path class="cls-5" d="M132.52,242.22c-.48-.54-1.32-1-1.36-1.61-.16-1.92,1.58-2.19,2.86-2.73,1.62-.69,1.43,1.28,1.48,1.57C135.79,241.42,133.66,241.07,132.52,242.22Z"/><path class="cls-5" d="M93.44,265.42c2-.15,2.58.25,2.58,1.26a2.35,2.35,0,0,1-2.1,2.59h-.14c-1.15.16-1.86-.26-1.73-1.57C92.2,266.22,93.06,265.45,93.44,265.42Z"/><path class="cls-5" d="M352.78,183.93c-.93.89-1.47,2.44-3,2.25a1.82,1.82,0,0,1-1.65-2s0-.07,0-.1a2.42,2.42,0,0,1,4.63-.19Z"/><path class="cls-8" d="M55,265.84a20.73,20.73,0,0,1-3.42,1.38c-1.4.3-1.72-.79-1.45-1.84.36-1.43,1.82-1.77,3-1.94S53.94,265,55,265.84Z"/><path class="cls-8" d="M80,248.16a2.27,2.27,0,0,1-2.38,2.12c-1,.09-1.58-.32-1.56-1.37a2.36,2.36,0,0,1,2.15-2.55h.24C79.43,246.22,80,246.67,80,248.16Z"/><path class="cls-8" d="M56.84,260.29c1.87.07,3,.74,2.76,1.57-.35,1.12-1.3,2.45-2.78,2.31a1.8,1.8,0,0,1-1.67-1.9s0-.07,0-.1A2.19,2.19,0,0,1,56.84,260.29Z"/><path class="cls-5" d="M30.87,312.33c-.58,0-.84-.62-.83-1.55,0-2.09,2.07-1.62,3.15-2.33.17-.11,1.09.93,1.67,1.44C33.82,310.87,33.16,312.38,30.87,312.33Z"/><path class="cls-5" d="M28.94,313.67c-.91,1-1.53,2.66-3.23,2.5-.85-.08-2.11-1.28-1.52-2.06a4.26,4.26,0,0,1,3.67-1.78C28.68,312.41,29,312.79,28.94,313.67Z"/><path class="cls-5" d="M10.55,323.36c.51.61,1.38,1.19,1.36,1.73a3.53,3.53,0,0,1-2.74,3.13c-1.4.45-.92-1.43-1.67-2Z"/><path class="cls-8" d="M10.73,132.3c-1.31,0-2.42-.58-2.3-1.53.2-1.52,2.11-1.35,3.07-2.22.49.59,1.39,1.18,1.38,1.77a2,2,0,0,1-2,2Z"/><path class="cls-8" d="M95.33,121.3c-1.09-.06-2-.67-1.83-1.69.22-1.32,1.77-1.45,2.77-1.8s1.79.76,1.62,1.69a2.18,2.18,0,0,1-2.53,1.8Z"/><path class="cls-8" d="M136.63,94.22c-1.3.17-2.18-.59-2.17-1.16a3.07,3.07,0,0,1,2.36-2.59c1-.35,1.91.7,2.08,1.57C139.27,94,136.63,92.82,136.63,94.22Z"/><path class="cls-8" d="M33,116.83c.12,1.87-1.72,1.72-2.67,2.31s-1.34-.5-1.27-1.41a2.35,2.35,0,0,1,2.28-2.4h.24C32.59,115.3,33.06,115.83,33,116.83Z"/><path class="cls-8" d="M101.12,114.33c1.66,0,1.93.68,1.89,1.62-.07,1.79-1.78,1.71-2.78,2.19s-1.24-.68-1.16-1.54A2.36,2.36,0,0,1,101.12,114.33Z"/><path class="cls-8" d="M65.94,110.14c.1,1.66-.38,2.1-1.37,2.17-1.9.13-1.75-1.69-2.36-2.63s.42-1.35,1.33-1.34A2.34,2.34,0,0,1,65.94,110.14Z"/><path class="cls-8" d="M43,110.22a2.37,2.37,0,0,1-2.58,2.06c-1,0-1.35-.58-1.36-1.55,0-1.85,1.76-1.71,2.73-2.25S43,109.08,43,110.22Z"/><path class="cls-8" d="M113,109.27a2.38,2.38,0,0,1-2.64,2c-1.07,0-1.33-.67-1.29-1.61.07-1.79,1.78-1.71,2.78-2.19S113,108.22,113,109.27Z"/><path class="cls-5" d="M143.82,234.3c-.85-.53-2.13-1.23-1.61-2.08a5.82,5.82,0,0,1,3-1.77c.31-.1,1.49,1.35,1.43,1.44C145.94,232.88,145.29,234.12,143.82,234.3Z"/><path class="cls-8" d="M88.21,243.22c-1.66.1-2.1-.38-2.17-1.37-.13-1.9,1.69-1.75,2.63-2.36s1.35.42,1.34,1.33A2.31,2.31,0,0,1,88.21,243.22Z"/><path class="cls-8" d="M61.94,105.05c.15,1.68-.27,2.15-1.29,2.25-1.92.2-1.77-1.63-2.39-2.56s.32-1.38,1.24-1.4A2.31,2.31,0,0,1,61.94,105.05Z"/><path class="cls-8" d="M7.94,296.52a2.32,2.32,0,0,1-2.53,1.77c-1,0-1.35-.58-1.36-1.55,0-1.85,1.76-1.71,2.73-2.25S8.06,295.06,7.94,296.52Z"/><path class="cls-8" d="M120.8,104.28c-.94,0-2-.12-1.62-1.2a3.86,3.86,0,0,1,2.72-2.62c1.4-.28,1.6,1.51,1.54,2C123.27,103.76,121.78,103.84,120.8,104.28Z"/><path class="cls-5" d="M112.94,255.59c-.63,1.28-1.64,2.07-3.07,1.64-.62-.19-1.61-1.17-1.5-1.46.53-1.47,2-1.83,3.37-2.05C112.22,253.64,113.1,254.59,112.94,255.59Z"/><path class="cls-5" d="M99.58,261.22c1.51.36,2.42,1.07,2.32,2-.17,1.45-1.8,1.55-2.87,1.92-.42.14-1.22-.84-1.85-1.3Z"/><path class="cls-8" d="M42.74,270.39c1.21,0,1.36.78,1.25,1.64a2.34,2.34,0,0,1-2.41,2.27l-.23,0c-1.07,0-1.32-.66-1.29-1.6C40.12,270.86,42,271.34,42.74,270.39Z"/><path class="cls-8" d="M29,282.37a2.44,2.44,0,0,1-2.43,1.93c-1.12.05-2.24-.61-2.14-1.49.16-1.53,2-1.61,3.08-2.14C28,280.42,28.79,281.42,29,282.37Z"/><path class="cls-8" d="M57.94,100.06c.26,1.68-.23,2.33-1.51,2.24-1-.07-2.34.38-2.38-1.51,0-1.72,1.46-1.72,2.29-2C57.39,98.39,57.63,99.72,57.94,100.06Z"/><path class="cls-8" d="M126.67,97.4c1.06-.14,1.94.6,1.94,1.18,0,1.37-1.24,2.2-2.35,2.6s-2-.71-2.08-1.56C123.94,97.83,126.09,98.4,126.67,97.4Z"/><path class="cls-8" d="M23.94,285.78c-1.12,1.05-1.65,2.56-3.14,2.39-.9-.11-2-1-1.6-2,.42-1.21,1.86-1.59,3-1.72C22.74,284.4,23.34,285.28,23.94,285.78Z"/><path class="cls-8" d="M17,287.36c1,.23,1.94.93,1.83,1.88-.17,1.43-1.76,1.58-2.83,1.91-.43.14-1.2-.83-1.81-1.29C15,288.87,15.68,287.75,17,287.36Z"/><path class="cls-8" d="M5.45,136.36c-1.45-.29-2.35-1-2.26-2,.14-1.47,1.76-1.57,2.83-1.93.41-.14,1.21.82,1.83,1.28Z"/><path class="cls-8" d="M13.78,292.64c-.7,1.78-2.38,1.58-3.31,2.49-.56-.58-1.55-1-1.32-1.94a2.3,2.3,0,0,1,2.65-1.87,2,2,0,0,1,.35.09C12.81,291.57,13.33,292.28,13.78,292.64Z"/><path class="cls-5" d="M49.58,296.42c1.17-.21,1.48.48,1.43,1.4a2.36,2.36,0,0,1-2.23,2.48h-.25c-1,.06-1.42-.42-1.5-1.43C46.86,296.9,48.94,297.45,49.58,296.42Z"/><path class="cls-8" d="M92.94,122.8c-1.14,1-1.66,2.56-3.16,2.37-.9-.11-2-1-1.6-2,.44-1.2,1.87-1.59,3-1.71C91.75,121.41,92.35,122.29,92.94,122.8Z"/><path class="cls-8" d="M304.2,23.54A2.39,2.39,0,0,1,306,25.73c.24,1.78-1.37,1.66-2.21,2.12s-1.57-.57-1.67-1.24C301.94,25,303.69,24.67,304.2,23.54Z"/><path class="cls-8" d="M157.48,76.39c1.06,0,1.45.29,1.54,1.1.19,1.82-1.15,2.69-2.32,3.42-.66.41-1.5-.68-1.54-1.34C155,77.82,156.94,77.47,157.48,76.39Z"/><path class="cls-5" d="M23.06,317.41c-.1,2.34-1.84,2.26-2.84,2.75s-1.26-.68-1.15-1.54a2.36,2.36,0,0,1,2.41-2.31l.25,0C22.84,316.35,23.11,317,23.06,317.41Z"/><path class="cls-8" d="M151.29,84.22c-1.24,0-1.32-.88-1.2-1.69a2.33,2.33,0,0,1,2.43-2.22l.25,0c1.1,0,1.28.76,1.23,1.66C153.94,83.77,152,83.32,151.29,84.22Z"/><path class="cls-8" d="M34,279c-.19,1.65-1.79,1.7-2.82,2.1s-1.21-.8-1.09-1.6a2.33,2.33,0,0,1,2.44-2.22l.25,0C33.87,277.4,34.09,278.1,34,279Z"/><path class="cls-8" d="M143.94,89c-.79.64-1.66,1.77-2.8,2.18s-1.16-.86-1-1.64a2.36,2.36,0,0,1,2.51-2.18l.24,0C143.64,87.4,144,87.8,143.94,89Z"/><path class="cls-8" d="M22.94,123.45a4.7,4.7,0,0,1-2.61,2.69c-1.09.44-1.34-.59-1.27-1.44a2.31,2.31,0,0,1,2.26-2.36,1.61,1.61,0,0,1,.31,0C22.31,122.35,22.94,122.48,22.94,123.45Z"/><path class="cls-8" d="M85,244.82c.33,1.7-1.32,1.66-2.16,2-1,.4-1.77-.66-1.66-1.61a2.18,2.18,0,0,1,2.4-1.87C84.57,243.32,85.06,243.77,85,244.82Z"/><path class="cls-8" d="M108,111.86c-.19,1.7-1.42,2.33-2.4,3.09-.09.07-1.4-.88-1.45-1.42-.14-1.48,1.28-2.1,2.26-2.85C106.59,110.56,107.53,111.48,108,111.86Z"/><path class="cls-8" d="M115.87,104.34c1.18,0,1.92,0,2.15,1.09.39,2-1.33,2-2.3,2.48-.68.32-1.5-.64-1.57-1.39C114,105.14,115.23,104.77,115.87,104.34Z"/><path class="cls-8" d="M148.94,85.56a2.67,2.67,0,0,1-2.64,1.74c-1.06-.06-1.32-.66-1.29-1.59.06-1.8,1.62-1.76,2.67-1.92C148.34,83.7,149,84.64,148.94,85.56Z"/><path class="cls-8" d="M69.63,117.65c-2-1.16-3.41-2-3.51-4.05C69.27,113,70.43,114.09,69.63,117.65Z"/><path class="cls-8" d="M163.94,77.22c-1.7.29-3.38.26-3.8-1.8-.28-1.34,1.46-1.54,2-1.52,2.3.06,1.87,1.87,1.74,3.39Z"/><path class="cls-8" d="M53,103.06a3.74,3.74,0,0,1-2.32,2.85c-.69.38-1.46-.67-1.52-1.33-.14-1.51,1.19-2.27,2.23-2.86C52.08,101.33,52.56,102.43,53,103.06Z"/><path class="cls-8" d="M48,106.82c.33,1.7-1.32,1.66-2.16,2-1.05.4-1.77-.66-1.66-1.61a2.18,2.18,0,0,1,2.4-1.87C47.57,105.32,48.06,105.77,48,106.82Z"/><path class="cls-8" d="M17.94,127.8c-1,.45-2.1,1.27-3.22,1.31s-.84-1.29-.62-2c.29-.91,1-1.87,2.07-1.67A2.18,2.18,0,0,1,17.94,127.8Z"/><path class="cls-8" d="M49,268.71c.37,1.6-1.13,1.65-2,2-1.24.55-1.79-.58-1.8-1.41,0-1.26,1-1.89,2.25-2C48.37,267.22,49,267.56,49,268.71Z"/><path class="cls-8" d="M26.44,118.67a1.56,1.56,0,0,1,1.5,1.37c.17,1.33-.79,2-2,2.22s-1.82-.08-1.87-1.47C23.94,119.12,25.52,119.4,26.44,118.67Z"/><path class="cls-8" d="M37.46,273.15c.63.88,1.44,1.5,1.43,2.11,0,1.43-1.44,2-2.33,2.86-.49-.58-1.5-1.41-1.37-1.71A20.43,20.43,0,0,1,37.46,273.15Z"/><path class="cls-8" d="M36.29,112.22c.84.21,1.73,0,1.63,1-.15,1.46-1.48,2-2.42,2.89-.46-.63-1.31-1.25-1.31-1.88C34.19,112.92,35.39,112.54,36.29,112.22Z"/><path class="cls-8" d="M.33,302.12c-.49-1.86-.65-3.49,1.13-4.54.16-.09.94.46,1.12.86C3.61,300.71,1.52,301.06.33,302.12Z"/><path class="cls-8" d="M2.94,137c.21,1.52-1.13,1.38-1.87,1.7-1.46.63-1-.73-1-1.26-.06-.72-.32-1.75.74-2S2.41,136.22,2.94,137Z"/><path class="cls-8" d="M299.2,31.32A6.59,6.59,0,0,0,298,27.48c1,0,2.41-.87,2.91.75S300.48,30.68,299.2,31.32Z"/><path class="cls-5" d="M346.15,188.36A2.25,2.25,0,0,1,345,186.2c.81-1.44,1.36-.06,1.67.3C347.28,187.22,347.17,188,346.15,188.36Z"/><path class="cls-9" d="M183.94,246.28c7-6.1,15.28-10.12,23-15,17.63-11,37.78-16.49,56.23-25.69,21.75-10.85,36.53-27.91,44.93-50.83A109.51,109.51,0,0,0,315,112.13c-.12-3.29-1.67-6.39-1.09-9.73,1.38-2.37,2.4-2.64,3.35.36a79.26,79.26,0,0,1,3.49,32.94,90.74,90.74,0,0,1-16.1,42.41c-7.94,11.31-18.61,19.66-30.19,26.95-13.08,8.22-28.15,11.75-42.12,17.9-14.63,6.44-29,13.26-43,21.08C187.71,245,186,246.22,183.94,246.28Z"/><path class="cls-10" d="M292.94,93.31c-14.56,1-26.82-10.85-26.66-26.57a25.79,25.79,0,0,1,26.07-25.52h.29c15.71.4,26.25,10.89,26.44,26.73C319.23,80.41,307.77,94.79,292.94,93.31Z"/><path class="cls-5" d="M176.05,186.27l-5.12-6c-.76-2.27-1.66-4.51-2.26-6.82-1.33-5-3.66-9.59,2.45-14.2,5.07-3.81,6.21-10.88,6.84-17.22,1.23-12.41,2.09-24.86,3-37.3.13-1.62.41-2.86,2.14-3.44,4.74-1.61,9.45-3.33,14.19-4.94,1.09-.37,1.78.66,2.63,1.11a103.76,103.76,0,0,0,6.86,10.36,20.79,20.79,0,0,1,2.32,4.43c.72,2,1.18,4.15,1.76,6.22s.23,4.19.83,6.22a14.64,14.64,0,0,0,1.29,3.7,7.35,7.35,0,0,0,3.14,2.22l2.41,1.16c2.82,1.53,5.94,2.28,8.92,3.4,4.65,3.62,10.83,4.35,15.39,8.14l.33,1A14.14,14.14,0,0,1,240,155.22h-3.84a19,19,0,0,1-7.26-.93c-4.12-1.61-8-1.43-11.56,1.34-3.18-1.32-3.44-6.37-7.84-6.14-2.38-.71-4.9-1-7.11-2.27-2.39-1.53-3.42-4-4.5-6.47-4-9-8.51-17.71-12.7-26.6a19,19,0,0,1-1.66-4.69c5.07,16.5,8.49,33.72,13.18,50.62.46,1.9-1.59,4.76,2.37,5.3,3.34.46,6.56,1.53,8.34-2.76.75-1.83.91-4.4,3.81-4.53a4.05,4.05,0,0,1,1.91,3.78,5.68,5.68,0,0,1-2.06,4.28c1.4.19,2.78-.19,4.12.2,2.89,1,5.76,2.2,8.92,1.15a3,3,0,0,1,2.76.79l-15,23c-7,1-16.57-4.38-20.37-11.45-.71-1.32-1.07-2.78-2-4.44-3.38,3.52-5.25,8-8.26,11.53C179.31,188.35,177.47,188.88,176.05,186.27Z"/><path class="cls-1" d="M199.1,210.43c-3.27,5.89-6.59,11.75-11,16.92-8.29,5.77-20.44,1.7-25.82-8.61-3.71-7.11-2.65-13.92,1.75-20.17,4.69-6.67,11.33-9.42,19.5-8.17,3.06,1.38,6.28,2.45,9.12,4.34C196.94,199.11,201.16,203.48,199.1,210.43Z"/><path class="cls-10" d="M183.94,191.28c-13.43.16-19,4.49-22.19,16.07-2.56,9.46,7.93,22.73,19.53,21.32,2.29-.28,4.54-.87,6.81-1.32-.61,2.82-2.8,4.68-4.26,7-16.64,1.15-28.41-10.92-27.78-25.34.42-9.5,5.65-19.56,20-22.72a4,4,0,0,0,4.95.09C183.07,187.35,184.35,188.81,183.94,191.28Z"/><path class="cls-11" d="M183.94,191.28l-3-4.92c2-5.06,5.57-9.09,9.11-14.42,2.41,12.81,11.34,17,21.76,19.38l-2,3c-3.18,2.21-6.78,1.31-10.24,1.41-2.51-.06-5.06.4-7.54-.36C189.4,194,186.16,193.67,183.94,191.28Z"/><path class="cls-5" d="M223.13,109.45a1.77,1.77,0,0,1,2.51-.15,1.47,1.47,0,0,1,.31.35c4.16,4.36,9.24,8,9.28,15,0,7.59,6.1,10.08,11.73,12.75a2.82,2.82,0,0,1-1.82,1.92c-5.7,2-10.59-1.07-15.68-2.65-2.3-.72.36-3.46-1.34-4.7-1.65-.4-2.7-1.3-2.69-3.11,0-2,2.79-2.19,2.8-4.2-2.19-4.39-5.84-8.11-6-13.4A2.22,2.22,0,0,1,223.13,109.45Z"/><path class="cls-12" d="M248.1,145.37c7.43-.1,11,3,9.85,8.61-1,4.82-2.94,6.11-7.71,4.91-1.74-.43-3.42-1.07-5.13-1.62C243.43,152.63,245.4,148.91,248.1,145.37Z"/><path class="cls-3" d="M217.19,155.32c2.35-4.41,5.93-4.44,10.05-3,2.94,1.05,5.94,1.93,8.91,2.88-2.15.61-2.06,3.53-4.23,4.11-4.18,2.78-8.35.47-12.53,0C217.65,158.55,216.39,157.49,217.19,155.32Z"/><path class="cls-10" d="M192.09,195.35c2.14-1.5,4.57-.95,6.91-1,3.63,2.43,5.58,5.54,4.07,10.05a11.47,11.47,0,0,1-4,6C199.05,204.34,195.94,199.69,192.09,195.35Z"/><path class="cls-13" d="M248.1,145.37q-1.5,6-3,11.9c-2,.06-4.11.37-5.12-2.06a53.8,53.8,0,0,1,3.21-10.91A7.82,7.82,0,0,1,248.1,145.37Z"/><path class="cls-14" d="M219.05,158.48c4.34-.51,8.51,1.59,12.87.87-.92,3.41-3.11,6.12-5,9H224.2C222.87,164.84,219.86,162.22,219.05,158.48Z"/><path class="cls-11" d="M229,131.34c.18-.43.35-1.21.56-1.22a1.08,1.08,0,0,1,1.25.86,1.12,1.12,0,0,1-.14.74c-3.29,5,1.17,4.87,3.81,5.45,3.53.78,6.93,2.3,10.65,2.18.25,1.9-1.67,2.55-2.27,4-5.58-2.08-11.74-3-15.84-8C226.29,133.29,228.05,132.52,229,131.34Z"/><path class="cls-1" d="M203.07,204.41c.07-3.93-2.38-6.84-4.07-10l10.87-.06Z"/><path class="cls-12" d="M235,81.48c-.84,2-1.71,3.9-2.49,5.89-.55,1.38-1.1,2.81.72,3.84,1.21.68,3.79.27,2.76,2.94a4.59,4.59,0,0,1-5,3.17c-1-.07-2,0-3,0-.33-.29-.71-.52-1-.8a9,9,0,0,0,1.05.79,29.66,29.66,0,0,0,0,4c.6,4.63-1.52,6.43-6,6a6.08,6.08,0,0,1-2.25,0,18.05,18.05,0,0,1-11.28-9.47,6.33,6.33,0,0,1-.2-5.23A2.62,2.62,0,0,1,211,91.14c-3,0-4.13-2.21-4.94-4.69V84.22c.89-3.09,2.43-5.55,6.11-5.28a5.43,5.43,0,0,1,5.49,5.32c.16.59.7-.41.14-.05-.16.11-.25,0-.28-.41-.51-6.56.94-7.89,6.65-5.31C227.75,80.1,231.94,78.9,235,81.48Z"/><path class="cls-15" d="M235,81.48c-3-.57-6.13.08-9.25-1-2.2-.74-4.55-3.91-6.51-1.94-1.48,1.48-1.12,4.79-1.8,7.43-.4-3-1.26-5.2-4.74-5.91-3.9-.79-4.63,2.47-6.62,4.15-.05-.94-.1-1.88-.14-2.82-.5-12.88,11.83-19.28,23.2-13.34,3.52,1.84,6.89,4,10.69,5.26C242.31,78.69,241.39,80.22,235,81.48Z"/><path class="cls-16" d="M239.87,73.34c-3.64,1.88-6.15-1-8.49-2.6a20.36,20.36,0,0,0-14.72-3.31c-4.37.61-6.89,4.11-8.69,7.87a45.11,45.11,0,0,0-2,6.12c-1.36-4-2.71-7.94,2.59-10.26.43-.19,1.05-.66,1.05-1,.09-8.38,6.45-5.78,10.71-5.72C228,64.54,234.94,67,239.87,73.34Z"/><path class="cls-17" d="M221.19,106.34l.91.93c.34.73.68,1.45,1,2.18l-.16,1.77c-.52,2-.62,4.27-2.86,5.38a2,2,0,0,1-1.86-.82c-.2-.25-.5-.53-.49-.81.17-4.44-1.75-1.06-2.84-.76-2.84,1.46-5.25,1.39-6.77-1.9l-2.18-3.84a5.92,5.92,0,0,1-.61-2.33c-.57-4.1.68-5.06,4.53-3.46.89.37,1.74.86,2.63,1.24C215.39,104.74,217.48,108.41,221.19,106.34Z"/><path class="cls-18" d="M221.19,106.34c-3.32,4.47-5.51.2-8.08-1-3.68-3-9-3.91-11-9a16.78,16.78,0,0,1,4.75-5A2,2,0,0,1,209,92.48C209.16,99.6,212.8,103.75,221.19,106.34Z"/><path class="cls-19" d="M202.13,96.22l11,9a9.72,9.72,0,0,1-1.92-.44c-5.07-2.34-5.07-2.35-5.24,3.62-2.19-3.56-6.37-6-6-11A2.31,2.31,0,0,1,202.13,96.22Z"/><path class="cls-20" d="M209.05,92.48c-.8-.26-1.84-.07-2.17-1.19.53-1.76-1.55-3.11-.76-4.91,1.77,1.54,2.28,4.71,6.79,3.68Z"/><path class="cls-10" d="M229.42,49.31c-9.75,0-16.45-6.84-16.39-16.72a16.5,16.5,0,0,1,33,.23C246,42.63,239.29,49.32,229.42,49.31Z"/><path class="cls-1" d="M313,67.4c1,10-8.28,20.16-20.38,20.81-10,.54-21.07-10.55-20.5-20.92.7-12.92,9.6-20.77,21.09-20.63C303.4,46.78,313.79,55.49,313,67.4Z"/><path class="cls-11" d="M196.15,160.36c-3.41-6-3.88-12.89-5.66-19.37A326.25,326.25,0,0,1,183,107c4.37,9,8.7,18,13.13,27,2.1,4.26,3.22,9.09,7,12.38C203.43,152.33,201.35,157.12,196.15,160.36Z"/><path class="cls-19" d="M196.15,160.36a37.16,37.16,0,0,0,7-14l6.89,2.12c2.19,3.11,3.43,6.31.84,9.83a6.24,6.24,0,0,0-.83,1.07c-3.62,7.84-3.6,7.52-12.18,7.08-4.28-.22-4.06-1.46-2.26-4.27A6.53,6.53,0,0,0,196.15,160.36Z"/><path class="cls-21" d="M219.83,116.22l3.11-5c1.24,4.38,2.87,8.55,6.2,11.84.73.72.1,1.51-.17,2.24-1,1-2.69,1.37-3,3.06a2.88,2.88,0,0,0,2.76,3H229c.18,1.75-1.4,2.61-2,4-3.53.48-6.42-.89-9-3.1C216.66,126.67,216.56,121.27,219.83,116.22Z"/><path class="cls-22" d="M210.87,158.31c1-3.39-1.06-6.51-.84-9.83,5.09-.56,5.27,4,7.16,6.84.5,1.12.66,2.45,1.86,3.16,2.23,3,6.14,5.14,5.15,9.84-3.33,2.32-6.19.57-9.06-1-2.39-.86-2.41-3.15-3.06-5.06A5.31,5.31,0,0,0,210.87,158.31Z"/><path class="cls-23" d="M214.87,113.27c3.51-3.83,3.07.65,4.13,2-1.46,5.28-.25,11.08-3.12,16.08-1.49-.2-2.89-.56-3.68-2C211.73,123.73,213.75,118.58,214.87,113.27Z"/><path class="cls-24" d="M214.87,113.27c1.55,1.42.59,2.92.2,4.44-1,3.85-1.92,7.72-2.87,11.58a5.51,5.51,0,0,1-1.28-3.91c-.18-2.36,1-4.94-1-7-1.18-1.84-1.41-4-1.73-6.06C210.12,114.51,212.42,114.41,214.87,113.27Z"/><path class="cls-19" d="M215.88,131.32c.55-5.45.84-11,3.12-16.08.27.34.55.67.83,1l-1.83,16C217.11,132.35,216.24,132.45,215.88,131.32Z"/><path class="cls-11" d="M212.08,162.22l3.06,5.06h-5.35C210,165,212.34,164.22,212.08,162.22Z"/><path class="cls-19" d="M209.94,118.35c4,1.81,2.16,4.47,1,7C208.94,123.28,210.52,120.65,209.94,118.35Z"/><path class="cls-3" d="M168,203.22c2.78-5,8.67-8.2,13.28-7.24,7.71,1.6,12.15,5.59,12.73,11.45.77,7.72-2.16,12.77-9.29,16-5.11,2.3-10.47.84-14.72-4-1-1.67-1.13-3.67-1.91-5.43C167.53,210.39,166.94,206.82,168,203.22Z"/><path class="cls-25" d="M168,203.22c0,3.73,1.64,7.3,1,11.09l-.41.41a1.51,1.51,0,0,1-1.6-.25C165,210.53,165.88,206.82,168,203.22Z"/><path class="cls-25" d="M169.05,214.32c1.71,1.43.72,3.37,1,5.08a3,3,0,0,1-1.94-2c.65-.92-.2-2.28.92-3.07Z"/><path class="cls-5" d="M169,214.35c-.16,1.07.64,2.42-.92,3.07l-1-2.94Z"/><path class="cls-11" d="M226,128.34c-1.25-3.22,1.78-2.25,3-3.06C228.94,127.22,227.09,127.4,226,128.34Z"/><path class="cls-18" d="M211.17,89.56c.11-2.81-2.35-4.45-.06-6,1.23-.79,2.52-.12,3.19,1.33C215.58,87.72,212.78,87.53,211.17,89.56Z"/><path class="cls-18" d="M228.05,97.32c-1.49-.21-3-.49-2.54-2.54.11-.45,1-1.14,1.36-1,1.93.61-.16,2.67,1.17,3.59Z"/><path class="cls-1" d="M229.22,45.31A12.33,12.33,0,0,1,217,32.88,12.5,12.5,0,0,1,242,33a12.32,12.32,0,0,1-12.34,12.3Z"/><path class="cls-25" d="M280.2,58.27c5-6.55,11.93-8.35,19-4.93a15.67,15.67,0,0,1,8.7,18c-.51,2-1,4.18-4.13,1.58-1.81-1.52-3.42-3.47-5.65-4.53-2.26.78-3.24-1.46-4.91-2.06C289.12,63.27,283.94,61.93,280.2,58.27Z"/><path class="cls-3" d="M280.2,58.27c5,1.51,9.26,4.56,13.77,7.07a27.31,27.31,0,0,1-9.89,14.81C277.55,75.93,274.05,66.15,280.2,58.27Z"/><path class="cls-2" d="M284.08,80.15l9.86-14.81,4.18,3c.22,3,2.81,4.56,4.3,6.76s1.15,3.8-.88,5.09C296.94,83.22,291.34,85.08,284.08,80.15Z"/><path class="cls-25" d="M229.71,42.31c-5.39.06-9.6-3.79-9.68-8.84s4.65-10.21,9.58-10.15c4.76.05,9.33,4.81,9.42,9.81a9.18,9.18,0,0,1-9.2,9.18Z"/></g></g></svg>