<svg xmlns="http://www.w3.org/2000/svg" xmlns:xlink="http://www.w3.org/1999/xlink" viewBox="0 0 554.5 406.1"><defs><style>.a{fill:none;}.b{clip-path:url(#a);}.c,.d,.e,.f,.k,.l,.m,.n,.o,.q,.r,.s,.t,.u,.y{fill-rule:evenodd;}.c{fill:url(#b);}.d{fill:url(#c);}.e{fill:url(#d);}.f{fill:url(#e);}.g,.s{fill:#f65a6f;}.h{fill:#a6d509;}.i{fill:#ffc502;}.j{fill:#6dc9d6;}.k,.p{fill:#dba867;}.l,.v{fill:#fccd95;}.m{fill:#62879c;}.n{fill:#283740;}.o{fill:#87acc2;}.q{fill:#c79a5f;}.r{fill:#4d4d4d;}.t{fill:#fcbf29;}.u,.w{fill:#fff;}.x{opacity:0.5;}.y,.z{fill:#667f8f;}</style><clipPath id="a" transform="translate(-48.9)"><rect class="a" y="120" width="500" height="269.11"/></clipPath><linearGradient id="b" x1="334.83" y1="78.66" x2="443.42" y2="266.74" gradientUnits="userSpaceOnUse"><stop offset="0" stop-opacity="0.6"/><stop offset="1" stop-opacity="0"/></linearGradient><linearGradient id="c" x1="238.42" y1="107.71" x2="347.01" y2="295.79" xlink:href="#b"/><linearGradient id="d" x1="142.14" y1="136.73" x2="250.73" y2="324.82" xlink:href="#b"/><linearGradient id="e" x1="45.87" y1="165.83" x2="154.46" y2="353.92" xlink:href="#b"/></defs><title>phase</title><g class="b"><polygon class="c" points="297.4 167.7 393.7 144.5 554.5 305.3 448.6 318.9 297.4 167.7"/><polygon class="d" points="201 196.8 297.3 173.5 458.1 334.3 352.2 348 201 196.8"/><polygon class="e" points="104.7 225.8 201 202.5 361.8 363.3 255.9 377 104.7 225.8"/><polygon class="f" points="8.4 254.9 104.8 231.7 265.5 392.4 159.7 406.1 8.4 254.9"/></g><rect class="g" x="6.9" y="233.1" width="96.3" height="23.24"/><rect class="h" x="103.2" y="204.1" width="96.3" height="23.24"/><rect class="i" x="199.6" y="175" width="96.3" height="23.24"/><rect class="j" x="295.9" y="146" width="96.3" height="23.24"/><path class="k" d="M114.8,143.5l-.6-5.1h0v-.6l-.9-6.9-5.3.7c1.1,8.9,1.9,8.3,2.4,10.2l-.5,3.2-.2,2.1-.7.8a1.1,1.1,0,0,0,.1,1.3h.3v.6a.8.8,0,0,0,.8,1h0a.9.9,0,0,0,1-.7v-.7a1,1,0,0,0,.5-.4l1.4-2.5,1.5-1.9h-.1A2,2,0,0,0,114.8,143.5Z" transform="translate(-48.9)"/><path class="l" d="M114.5,143.2l-.6-5.2h.1v-.6c-.3-2.4-.6-4.5-.8-6.9l-5.4.7c1.1,8.9,2.4,10.6,2.4,10.9l-.5,2.6-.2,2.1-.7.7a1,1,0,0,0,.1,1.3h.3v.7a1.1,1.1,0,0,0,.8,1h0a1,1,0,0,0,1-.8v-.7a.8.8,0,0,0,.4-.4l1.5-2.5,1.4-1.8h-.1A1.9,1.9,0,0,0,114.5,143.2Z" transform="translate(-48.9)"/><path class="m" d="M111.6,117l3,20-5.9,1.8L104,125.3C99.5,112.5,111,112.5,111.6,117Z" transform="translate(-48.9)"/><path class="m" d="M126.4,104.7,109.9,122l-6.5-4.7,10.5-14.4C123.4,89.8,130.2,100.8,126.4,104.7Z" transform="translate(-48.9)"/><path class="m" d="M114.2,137.1l-5.5,1.7L104,125.3c-.8-2.2-2.2-4.8-.6-8s10.8-16.4,14.2-18.1c-2.1,2.6-12.6,17.7-12.2,22s5.1,15.6,5.1,15.6Z" transform="translate(-48.9)"/><path class="n" d="M154,189.3c-.9,2-1.1,8.8-.8,11.2s.2,3.2,2.2,3.2,3-.3,3.2-1.1,4.3.5,6.1.5c3.8-.1,13.5.3,14.5-3.6.5-1.8-2.8-3.3-5.5-3.7-4.6-.6-9.8-1.9-11.2-5.9-.6-2,.8-3.7-.6-2.5s-2.4,3.1-4.5,2.5S154.6,188.5,154,189.3Z" transform="translate(-48.9)"/><path class="o" d="M123.6,148.7l31.2.7c10.5.3,14.3,14.8,2.9,15.1l-31.5.8C98,166.1,113.1,148.4,123.6,148.7Z" transform="translate(-48.9)"/><path class="o" d="M164.7,160.3l1,33-12.5.4-2.6-32C149,142.3,164.8,152.6,164.7,160.3Z" transform="translate(-48.9)"/><path class="m" d="M122.6,148.7l33,.8c2.6.1,8.9,2.3,9,7.2l1,36.3-12.3.8,9.9-2-.6-35c0-3.8-3.8-5.2-7.7-5.5Z" transform="translate(-48.9)"/><path class="n" d="M103.8,217.4c-1.2,1.9-2.5,8.6-2.6,11s-.4,3.2,1.6,3.5,3,.1,3.3-.7,4.2,1,6,1.2c3.7.4,13.2,2,14.9-1.8.7-1.6-2.2-3.5-4.8-4.3-4.5-1.2-9.3-3.1-10-7.3-.4-2,1.3-3.5-.3-2.5s-2.9,2.7-4.8,1.9S104.6,216.7,103.8,217.4Z" transform="translate(-48.9)"/><path class="o" d="M127.5,152.3l-7,39.6-15.3-.2,1.4-34.9C107.6,128.9,129.3,141.9,127.5,152.3Z" transform="translate(-48.9)"/><path class="o" d="M120.7,190.1l-6.1,32.7-12.3-1.1,2.8-32.1C106.8,170.2,122.2,182.5,120.7,190.1Z" transform="translate(-48.9)"/><polygon class="m" points="78.7 151.3 65.7 222.8 53.4 221.7 63 220.3 78.7 151.3"/><path class="k" d="M116,74.9c1.2,11.6,14.7,23.6,24.7,19.6s11.4-23.1,3.6-32C135.1,51.9,114.5,61,116,74.9Z" transform="translate(-48.9)"/><path class="k" d="M123.3,82.1l-2,13.1c-.7,4.2,6.2,13.5,6.8,10l3.8-21.8C132.9,77.8,124.2,76.4,123.3,82.1Z" transform="translate(-48.9)"/><path class="l" d="M118.3,79.2c4.8,9.6,15.6,17.5,23.6,14.2s10.1-16.2,6.7-26.3a20.5,20.5,0,0,0-2.9-4.5c-10.1-12.3-30.7-3.2-28.4,12.6A29.2,29.2,0,0,0,118.3,79.2Z" transform="translate(-48.9)"/><path class="p" d="M145.1,85.3a10.7,10.7,0,0,1-6.6-5.7c-.3-.4-1-.1-.7.3,1.5,3.3,3.8,4.9,6.9,6.1C145.4,86.2,145.7,85.5,145.1,85.3Z" transform="translate(-48.9)"/><path class="q" d="M120.4,86.8c6.5-4.5,9.2-12.1,14.2-20,3.3,3.8,12.5,5.9,17.6,2-2.9-1.6-4.4-4.7-6.7-7.5-8.7-10.5-30.2-4.4-30.2,12.3C115.3,77.6,117.2,82.1,120.4,86.8Z" transform="translate(-48.9)"/><path class="k" d="M125.9,73.6c-1.3.3-1.9,2.1-1.5,4s1.7,3.4,3,3.2,1.9-2.1,1.5-4.1S127.1,73.3,125.9,73.6Z" transform="translate(-48.9)"/><path class="l" d="M126.1,72.8c-1.3.3-1.9,2.1-1.5,4.1s1.7,3.4,3,3.1,1.9-2.1,1.5-4.1S127.3,72.6,126.1,72.8Z" transform="translate(-48.9)"/><path class="k" d="M148.1,77.5a1.8,1.8,0,0,0-.9,2.4,1.8,1.8,0,1,0,3.3-1.3A1.8,1.8,0,0,0,148.1,77.5Z" transform="translate(-48.9)"/><path class="l" d="M148.6,75.9a2.5,2.5,0,0,0-1.5,3.3,2.6,2.6,0,0,0,3.4,1.4,2.5,2.5,0,0,0,1.4-3.3A2.5,2.5,0,0,0,148.6,75.9Z" transform="translate(-48.9)"/><path class="r" d="M142.9,72.8c-.7.4-1.1,1.8-1,3s.8,1.8,1.5,1.4a3.2,3.2,0,0,0,1-2.9C144.3,73.1,143.6,72.4,142.9,72.8Z" transform="translate(-48.9)"/><path class="o" d="M111.5,124.1c-1.4,9.6-6.2,23.5-6.4,27.5,7.4,2.8,15.2.3,26.3-2.6,1.3-12.4-.9-37.5-2.2-51.1-2.7-.1-7.4-3-7.2-6.7C119.8,93,114.6,103.4,111.5,124.1Z" transform="translate(-48.9)"/><path class="m" d="M131.7,131.6c.1,6.1.4,11.5-.3,17.4-10.7,5.2-18.9,5.4-26.3,2.6,5.1,1.3,18.6-.6,24.5-3.7C130.7,145.2,131.7,131.6,131.7,131.6Z" transform="translate(-48.9)"/><path class="s" d="M129.8,103.3a26.9,26.9,0,0,1,.6,8.6c-.3,2.6-3.2-7.6-2.3-9.3S129,100.9,129.8,103.3Z" transform="translate(-48.9)"/><path class="t" d="M129.2,97.9a5.3,5.3,0,0,1,.5,5.7C128.6,105.4,125.7,101.1,129.2,97.9Z" transform="translate(-48.9)"/><path class="u" d="M129.2,97.9c-1.7-.4-6.7-3.8-7.1-7.6a9.1,9.1,0,0,0-1.3,2.2c-.3,5,6,9.7,7.3,10.1A35.7,35.7,0,0,0,129.2,97.9Z" transform="translate(-48.9)"/><path class="p" d="M148.3,125l1.3-3.2.2-.5c2.1-3.7,4.1-5.8,4.9-5.4s.1,1.8.2,2.1l1.2-.4c1.8-.8,1.9,1.1,1.5,1.4a1.3,1.3,0,0,1,.1,1.8,1.1,1.1,0,0,1,.3,1.6c.5,0,.8,1.5-.4,1.9l-3.9,1.6c-2.8,1.2-1.8,1.2-5.1-.2A.5.5,0,0,1,148.3,125Z" transform="translate(-48.9)"/><path class="v" d="M148.3,124.3l1.3-3.1.3-.5c2-3.7,4-5.8,4.8-5.4s.1,1.8.2,2.1l1.2-.4c1.8-.8,1.9,1.1,1.5,1.3a1.3,1.3,0,0,1,.1,1.8,1.2,1.2,0,0,1,.3,1.7c.5,0,.8,1.5-.3,1.9l-4,1.6c-2.8,1.1-2.1,1.1-5.1-.2A.6.6,0,0,1,148.3,124.3Z" transform="translate(-48.9)"/><rect class="w" x="147.6" y="121.1" width="3.2" height="6.66" transform="translate(-87.6 74.9) rotate(-25.1)"/><path class="o" d="M130.7,125.3l17.1-4.2,3.5,6.7-11.9,4.7C126.8,137.5,126.2,126.2,130.7,125.3Z" transform="translate(-48.9)"/><path class="m" d="M126.3,105.7l9.7,21.9-6.8,4.1-9.4-15.1C111.2,102.8,124,100.7,126.3,105.7Z" transform="translate(-48.9)"/><path class="o" d="M126.9,106.4l9.7,22-6.7,4-9.4-15.1C111.8,103.6,124.7,101.5,126.9,106.4Z" transform="translate(-48.9)"/><path class="m" d="M148,121.4l3.3,6.4-11.9,4.7c-8.4,3.5-11.6-.6-11.5-2.8,1.6,1.2,2.9.7,3.8,1.2s1.5.7,3.5.4c4.1-.7,13.5-5,13.5-5Z" transform="translate(-48.9)"/><path class="m" d="M133.1,131.5l-4.6.2-8-14.4c-.7-1.2-3.1-4.3-2.9-7,.2,2.6,11.6,18.1,12.7,19.4A4.9,4.9,0,0,0,133.1,131.5Z" transform="translate(-48.9)"/><g class="x"><path class="y" d="M283.4,19.1a15.2,15.2,0,0,1,0,21V36.9a13.2,13.2,0,0,0,0-14.6V19.1Zm0,11.6a.9.9,0,0,0,.8-.8.8.8,0,0,0-.8-.8ZM272.5,14.4a15,15,0,0,1,10.9,4.7v3.2a13.2,13.2,0,0,0-10.9-5.8V14.4Zm10.9,25.7a15.3,15.3,0,0,1-10.9,4.6v-2a13.2,13.2,0,0,0,10.9-5.8v3.2Zm0-11v1.6h0a.8.8,0,0,1-.8-.8.7.7,0,0,1,.8-.8ZM272.5,41.5h.1a.8.8,0,0,0,.8-.7.8.8,0,0,0-.8-.8h-.1v1.5Zm0-10.8V29.6h0a.7.7,0,0,0,.7-.7V21.3a.7.7,0,0,0-.7-.7h0v7.9a1.1,1.1,0,1,1,0,2.2Zm0-1.1v-1a.9.9,0,0,1,0,1Zm0-9.7a.8.8,0,1,0,0-1.6Zm0-5.5h0v2.1a13.1,13.1,0,0,0-10.8,5.6V19a15.3,15.3,0,0,1,10.8-4.6Zm0,30.3h0a15.2,15.2,0,0,1-10.8-4.5V37a13.2,13.2,0,0,0,10.8,5.7v2Zm0-26.4h0a.8.8,0,0,0,0,1.6h0V18.3Zm0,2.3a.7.7,0,0,0-.7.7v7.6a.7.7,0,0,0,.7.7v1.1h0a1.1,1.1,0,0,1,0-2.2h0V20.6Zm0,8v1h0a.7.7,0,0,1-1,0l-4.6-4.1a.7.7,0,0,1,0-1h0a.6.6,0,0,1,.9,0l4.6,4.1Zm0,11.4a.8.8,0,0,0-.7.8.7.7,0,0,0,.7.7V40Zm-10.8-9.2V29.2a.8.8,0,0,1,.8.8A.9.9,0,0,1,261.7,30.8Zm0,9.4a15,15,0,0,1-4.3-10.6A14.8,14.8,0,0,1,261.7,19v3.1a13.2,13.2,0,0,0,0,14.9v3.2Zm0-11a.8.8,0,0,0-.8.8.9.9,0,0,0,.8.8Z" transform="translate(-48.9)"/><path class="y" d="M53.2,67.4a4.3,4.3,0,0,1,0,8.6,4.3,4.3,0,0,1,0-8.6Z" transform="translate(-48.9)"/><path class="y" d="M58.3,66.5a7.5,7.5,0,0,1,2.2,5.2h2.8a10,10,0,0,0-5-8.7v3.5Zm0-6.9v-3A15.9,15.9,0,0,1,69.1,71.7H66.3A13.2,13.2,0,0,0,58.3,59.6Zm-5.1,4.9a7.5,7.5,0,0,1,5.1,2V63a9.8,9.8,0,0,0-5.1-1.4v2.9Zm5.1-7.9v3a12.5,12.5,0,0,0-5.1-1V55.8A17,17,0,0,1,58.3,56.6Z" transform="translate(-48.9)"/><rect class="z" x="208.8" y="6.2" width="4.3" height="18.79" transform="translate(-43.3 66.7) rotate(-18.2)"/><rect class="z" x="209.6" y="7" width="2.6" height="17.1" transform="translate(-43.3 66.7) rotate(-18.2)"/><path class="y" d="M208.7,0a5.3,5.3,0,0,1,3.8,3.5,5.3,5.3,0,0,1-3.3,6.6,5.3,5.3,0,0,1-6.7-3.4,5.5,5.5,0,0,1,1-5l1,2.8L205,6l1.5.3,1.5.4,1.1-1.2,1-1.2-.5-1.5Z" transform="translate(-48.9)"/><path class="y" d="M218.4,29.5a5.5,5.5,0,0,0,1-5.1,5.3,5.3,0,0,0-10,3.3,5.3,5.3,0,0,0,3.8,3.5l-.9-2.9-.5-1.4,1.1-1.2,1-1.2,1.5.3,1.6.3.5,1.5Z" transform="translate(-48.9)"/><path class="y" d="M218.6,27.4a4.2,4.2,0,0,0,0-2.7,4.4,4.4,0,0,0-8.4,2.7,4.5,4.5,0,0,0,1.6,2.2l-1-2.9,2.8-3.1,4,.8Z" transform="translate(-48.9)"/><path class="y" d="M203.3,3.7a4.2,4.2,0,0,0,0,2.7,4.4,4.4,0,0,0,5.6,2.8,4.4,4.4,0,0,0,2.8-5.5,4.5,4.5,0,0,0-1.6-2.2l1,3-2.8,3-4-.8Z" transform="translate(-48.9)"/><path class="z" d="M348.6.1c-1.3-.7-4.4,2.2-5.2,3.5L341.5,7,331,5.8l-1.4,2.4,9.5,3.2-2.7,4.7-5.2.6-1.3,2.4,7.2,1.3,4.8,5.5,1.3-2.4-2-4.6,2.7-4.8,7.5,6.4,1.3-2.4-6.3-8.3,1.9-3.4C349.1,5,350,.9,348.6.1Z" transform="translate(-48.9)"/><path class="z" d="M56.6,133.7h3.5a4.8,4.8,0,0,1,3.5,1.4,7.1,7.1,0,0,1,1,1.4H61.8a2.4,2.4,0,0,0-1.7-.6H56.6a2.8,2.8,0,0,0-2,.8,3,3,0,0,0-.8,1.9h0a3.3,3.3,0,0,0,.8,1.9,2.8,2.8,0,0,0,2,.8h3.5a2.4,2.4,0,0,0,1.7-.6h2.8a4.5,4.5,0,0,1-1,1.3,4.9,4.9,0,0,1-3.5,1.5H56.6a4.9,4.9,0,0,1-3.5-1.5,4.6,4.6,0,0,1-1.4-3.4h0a4.8,4.8,0,0,1,4.9-4.9Z" transform="translate(-48.9)"/><path class="z" d="M71.2,133.7h3.6a4.8,4.8,0,0,1,4.9,4.9h0a4.6,4.6,0,0,1-1.4,3.4,4.9,4.9,0,0,1-3.5,1.5H71.2a4.9,4.9,0,0,1-3.4-1.5,4.5,4.5,0,0,1-1-1.3h2.7a2.7,2.7,0,0,0,1.7.6h3.6a2.6,2.6,0,0,0,1.9-.8,2.7,2.7,0,0,0,.8-1.9h0a2.7,2.7,0,0,0-2.7-2.7H71.2a2.7,2.7,0,0,0-1.7.6H66.8a7.1,7.1,0,0,1,1-1.4A4.8,4.8,0,0,1,71.2,133.7Z" transform="translate(-48.9)"/><path class="y" d="M61.6,137.6h8.9a1,1,0,0,1,1,1h0a1.1,1.1,0,0,1-1,1H61.6a1.1,1.1,0,0,1-1-1h0A1,1,0,0,1,61.6,137.6Z" transform="translate(-48.9)"/><path class="z" d="M224.2,88.8a7.8,7.8,0,0,0,2.2-.3l1.4-.4.6-.2,1.3-.6.6-.3a13.7,13.7,0,0,0,2.4-1.8l.5-.4.5-.5.6-.8a5.1,5.1,0,0,0,.9-1.3l.3-.4.3-.6c0-.1.1-.2.1-.3l.3-.6.3-.6c.1-.5.3-.9.4-1.4s.1-.4.1-.6a6.4,6.4,0,0,1,.2-.7v-.7a7.6,7.6,0,0,0,.1-1.5,6.6,6.6,0,0,0-.1-1.4v-.7c-.1-.2-.1-.5-.2-.7s-.1-.5-.1-.7l-.4-1.3-.2-.3-.4-1c0-.1-.1-.2-.1-.3l-.3-.6-1.2-1.6-.6-.8-.5-.5-.5-.5-1-.8a11,11,0,0,0-1.4-.9l-.6-.4h-.3l-.3-.2h-.2l-.5-.2h0l-.5-.2a.1.1,0,0,1-.1-.1l-1.3-.3h-.7l-1.6-.2v.8l1.7.2c0,.1-.1.1-.2.1l-.3.2h-.7a.2.2,0,0,0,.2.2h1.2a.3.3,0,0,1,.1-.2h.6c-.1.1-.2.1-.2.2s.3,0,.4-.1h.1l.7.2a2,2,0,0,1,.8.4h-.1l-.3-.2a.3.3,0,0,0,.3.3l.3.3c-.2.3-.4,0-.6,0s-.5.4-.7.1.3-.2.3-.4h-.9l-.5.3h-.3l-.6.3-.5.3-.2.4s.2.1.2.2a.3.3,0,0,0-.1.2h.4l.5.4h.5c.2.1.4,0,.5.2s-.2.2-.3.3,0,.2,0,.3.1.3.2.3a.9.9,0,0,0,.5-.3,1.3,1.3,0,0,1,.1-.6c.7,0,1.3-.3,1.3-1s-.1-.2,0-.3l.2-.3a.3.3,0,0,0,.1-.2c.1-.1.1-.2.2-.2h.9l.3.3c.1.1.2,0,.2.1s-.1.2-.1.4h0l.2.2c.1.1.3,0,.4-.1l.3-.2.5.3v.6c0,.3.3.3.5.4v.2l.2.2c0,.3-.3.3-.2.6l-.2.2c0,.3.4.1.4.3s0,.1,0,.3.1.4-.1.4l-.3-.2h-1l.7-.6c0-.1.2-.1.2-.3s-.3,0-.5.1a.5.5,0,0,1-.4.2c-.2,0-.6-.1-.8.1s.3,0,.2.2h-.2v-.2h-.5a.3.3,0,0,0-.3.3c.2,0,.5-.1.6.1s-.4.3-.4.5l.2.3h.4c.2-.1.2-.3.4-.2s-.2.3-.4.4l-.7.2c-.1,0-.5.4-.5.1s.2-.1.2-.3l-.7.2c-.3.1-.8.2-.9.5s.1.2,0,.3h-.3l-.4.2h-.2c-.1,0-.2.2-.3.3s-.2,0-.2.1-.1.3-.2.3-.2-.1-.3,0,.1.4,0,.6l-.6.4-.4.2-.3.2-.3.2v6.5a.2.2,0,0,0,.2-.2c.1-.2.1-.3.3-.4h.5c.1,0,.1-.1.2-.2s.2-.1.3,0-.2.1-.1.3.3-.2.5-.2h.3l.3.2h.3l.4.2.3-.2c.3-.1.4,0,.5.2s.1-.2.3-.1,0,.2,0,.3h.1l.3.2.3.3a.7.7,0,0,0,.5.3h.5a1,1,0,0,1,.7.4l.3.2V80c.1.2.4.3.3.6s.1.1.2.2l.3.2h.9a.4.4,0,0,0,.1.3h1.1l.5.2a13.9,13.9,0,0,1-8.2,6c0-.2-.1-.3-.1-.4a2.2,2.2,0,0,0,0-.8c0-.2-.1-.5-.1-.6a1.5,1.5,0,0,0-.6-.5h-.3a2,2,0,0,1-.9-.6v-.3l-.2-.2ZM209.5,72c0,.2-.1.5-.1.7s-.1.5-.1.7-.1.9-.1,1.4.1,1,.1,1.5.1.4.1.7.1.4.1.7l.2.6a7.4,7.4,0,0,0,.4,1.4c.1.2.1.4.2.6l.3.6.2.3.3.6a9.9,9.9,0,0,0,1.1,1.7l.7.8.4.5.5.4a14.4,14.4,0,0,0,2.5,1.8l.6.3,1.2.6.7.2a13.3,13.3,0,0,0,4.5.8h.9V84.3c0-.1-.1-.1-.1-.2l-.6-1a.8.8,0,0,0-.2-.4l-.3-.2c-.1-.2-.2-.4-.1-.5s.3-.2.3-.4l-.2-.2a.6.6,0,0,1,.1-.6v-.2l.2-.2c.1,0,.1-.2.2-.2s.3-.2.3-.4a2.1,2.1,0,0,0,0-.8v-.3c-.1-.2-.1-.4-.3-.4l-.3.2a.4.4,0,0,1-.1.3c-.2,0-.2-.2-.4-.3h-.3l-.3-.4h-.4v-.3c-.1-.1-.3-.5-.5-.6h-.9c-.3-.2-.5-.7-.9-.6H219l-.6-.2-.5-.2-.3-.2h-.3l-.3-.2-.3-.3c0-.1.1-.2.1-.4s-.2-.6-.3-.8l-.4-.4v-.2l-.3-.4c-.1-.1-.3-.2-.3-.4s.1-.3,0-.5a.2.2,0,0,0-.4.2.8.8,0,0,0,.2.4V73a.5.5,0,0,1,.2.4c.1.2.1.4.2.5s.2.2.1.4-.2-.1-.3-.2l-.3-.3v-.3c-.1-.2-.5-.2-.5-.4s.2-.2.2-.3l-.3-.4V72a.7.7,0,0,0-.1-.5l-.2-.3c-.2,0-.3,0-.3-.1a.6.6,0,0,1-.1-.4,1.3,1.3,0,0,1-.1-.6v-.6l.3-.3a.6.6,0,0,0,.1-.4l.6-.5a4.3,4.3,0,0,0,.4-.7v-.4c0-.1-.3-.2-.3-.4l.3-.2v-.3c0-.1-.1-.3,0-.4s.2-.2.1-.4h-.4c-.1-.1,0-.2,0-.3v-.4l-.2-.3a12.8,12.8,0,0,1,5.9-2.7h0a.1.1,0,0,0,.1.1c.1-.1.3,0,.4,0h.4c.3.1.7.3.9.2s.1-.1.1-.2.1-.2.1-.3h1.3v-.8h-1.4a13.4,13.4,0,0,0-4,.7l-.7.3h-.2l-.4.2-.6.3-.6.4a10.7,10.7,0,0,0-2.2,1.5l-.3.2-.5.5-.4.5-.7.8-1.1,1.6-.3.6-.2.3a10.4,10.4,0,0,1-.4,1V70a6.5,6.5,0,0,0-.4,1.3c-.1.2-.1.5-.2.7Zm14.7-.2v6.5a.1.1,0,0,1-.1.1c-.1,0-.2-.2-.4-.2s-.5.1-.8.1a.9.9,0,0,1-.6-.7c0-.1.1-.4.1-.5s.1-.3.1-.4-.2-.3-.3-.4a3.4,3.4,0,0,1-1,0c-.1-.1,0-.2.1-.3h0c.1-.1.2-.2.2-.3a.4.4,0,0,1,.1-.3V75c0-.1,0-.2-.1-.2H221c-.3.2-.2.6-.6.7h-.7l-.4-.2a1.7,1.7,0,0,1-.3-.6,1.4,1.4,0,0,1,.2-1.1c0-.1.1-.1.1-.2a.6.6,0,0,1,.1-.4c0-.2.3-.3.5-.4l.6-.3h.8c.3.1.3-.2.6-.3h.6l.3.2h.3l.3.3c0,.2-.1.3-.1.4s.4.2.6.3,0-.3,0-.5v-.2c0-.1-.1-.2-.1-.3A.7.7,0,0,1,224.2,71.8Z" transform="translate(-48.9)"/><path class="z" d="M164.8,18.2a12.2,12.2,0,0,1,8.8,3.7,12.4,12.4,0,0,1,3.7,8.8,12.6,12.6,0,0,1-1.6,6.1,12.4,12.4,0,0,1-4.1,4.4l-1.2,9.4a.7.7,0,0,1-.7.6h-4.9V49.8h4.3l1.2-9.1a.5.5,0,0,1,.3-.5,11.8,11.8,0,0,0,3.9-4.1,12,12,0,0,0,1.3-5.4,10.9,10.9,0,0,0-11-11h0V18.2Zm0,33h-5a.8.8,0,0,1-.7-.7l-1.2-9.3a13.1,13.1,0,0,1-4-4.4,12.6,12.6,0,0,1-1.6-6.1,12.7,12.7,0,0,1,3.6-8.8,12.5,12.5,0,0,1,8.9-3.7v1.5a10.9,10.9,0,0,0-7.8,3.2,11.1,11.1,0,0,0-3.3,7.8,10.9,10.9,0,0,0,1.4,5.4,11,11,0,0,0,3.9,4.1h0a.5.5,0,0,1,.3.5l1.2,9.1h4.3Z" transform="translate(-48.9)"/><path class="z" d="M162.8,45.5a.4.4,0,0,1-.3.6.6.6,0,0,1-.6-.4l-2-8.2V33.7h0l.6.5a6.8,6.8,0,0,0,4.2,1.4,6.5,6.5,0,0,0,4-1.4l.5-.6a.5.5,0,0,1,.7,0c.1.1.2.3.1.4l-2.9,11.7c0,.3-.3.4-.5.4a.6.6,0,0,1-.4-.6l2.5-10.2a5.8,5.8,0,0,1-4,1.2,7.6,7.6,0,0,1-4.4-1.3Zm-2.9-8-.8-3.5a.4.4,0,0,1,.3-.5.4.4,0,0,1,.5.1h0Z" transform="translate(-48.9)"/><path class="y" d="M158.1,44.5h13.4l-.7,6.3c-.1,1.1-.2,1.6-1.7,1.6h-8.7c-1.5,0-1.5-.5-1.6-1.6Z" transform="translate(-48.9)"/><polygon class="z" points="150.6 131.2 150.4 135 161.6 135 161.5 131.2 150.6 131.2"/><path class="z" d="M210.4,130.3h10.4V110.6H205v2.5h12.9v14.7H205v2.5ZM205,110.6H189.2v19.7H205v-2.5H192.1V113.1H205Z" transform="translate(-48.9)"/><polygon class="z" points="148.3 136 148.3 137.5 163.8 137.5 163.8 136 161.7 136 150.4 136 148.3 136"/><path class="z" d="M442.9,81.9l-4.4-4.4-.7-.7a16,16,0,0,0-4.4-5c-2.6-1.7-1.8-3-1.8-4.4s-1.5-1.4-2.5-.1a5.6,5.6,0,0,0-.7,1.8,4.5,4.5,0,0,0,1.3,3.4,2.8,2.8,0,0,1,.2,2.1h-6.7a1.6,1.6,0,0,0-1.6,2.3l3.4,9.4a1.6,1.6,0,0,0,1.4.9h8a2.8,2.8,0,0,1,1.7.7l.4.4a1,1,0,0,0,1.4,0l5-4.9A1.1,1.1,0,0,0,442.9,81.9Z" transform="translate(-48.9)"/><rect class="z" x="437.6" y="86.3" width="8.3" height="1.9" transform="translate(18.8 337.9) rotate(-45)"/><path class="z" d="M281.4,97.8c-1.9-.1-4.8-.6-4.8-2a1,1,0,0,1,1-1.1c.7,0,1.7.9,3.8,1V89.4c-2.4-.8-4.8-1.7-4.8-4.9s1.8-4.6,4.8-4.9V78.3a.7.7,0,1,1,1.4,0v1.3c1.6.1,4,.5,4,1.8a1,1,0,0,1-1.1,1.1c-.8,0-1.4-.6-2.9-.7v5.8c2.4.8,4.8,1.8,4.8,5a5,5,0,0,1-4.8,5.1v1.4a.7.7,0,0,1-1.4,0Zm0-10.6V81.8c-1.4.2-2.5.8-2.5,2.5a2.5,2.5,0,0,0,1.6,2.5Zm2.3,3.1-.9-.4v5.7a2.7,2.7,0,0,0,2.5-2.8A2.5,2.5,0,0,0,283.7,90.3Z" transform="translate(-48.9)"/><path class="z" d="M392.6,51.7l1.1-2-4.2-2.2-1,2a13.2,13.2,0,0,0-3.9-.6v3.4a9.5,9.5,0,0,1,9.1,6.7,9.7,9.7,0,0,1-6.4,12h0a12.6,12.6,0,0,1-2.7.4v3.3H386l.6,2.1,4.6-1.4-.7-2.1a12.8,12.8,0,0,0,4.2-3.4l1.9,1,2.3-4.1-2-1.1a13.5,13.5,0,0,0,.5-5.3l2.2-.7-1.4-4.5-2.2.7A11.7,11.7,0,0,0,392.6,51.7Zm-8-2.8h-1.5l-.6-2.2-4.6,1.4.7,2.1a15.3,15.3,0,0,0-4.2,3.4l-1.9-1-2.3,4.2,2,1a13.8,13.8,0,0,0-.5,5.4l-2.1.6,1.3,4.5,2.2-.6a12.3,12.3,0,0,0,3.4,4.1l-1.1,2,4.2,2.2,1-2a10.8,10.8,0,0,0,4,.6V71.4a9.7,9.7,0,0,1-9.2-6.8,9.5,9.5,0,0,1,6.4-11.9,8.6,8.6,0,0,1,2.8-.4Z" transform="translate(-48.9)"/><path class="z" d="M274,137.3l1.4-1.2-3-3.7-1.5,1.3a11.1,11.1,0,0,0-3.4-1.8l.2-1.9-3.5-.3V135a7.4,7.4,0,0,1,4.8,13h0a7.6,7.6,0,0,1-2.6,1.5l-2.2.3v5.3h1.3v-1.9a9.5,9.5,0,0,0,3.7-1.2l1.2,1.5,3.7-3-1.3-1.5a11.1,11.1,0,0,0,1.8-3.4h1.9l.4-4.7h-1.9A9.4,9.4,0,0,0,274,137.3Zm-9.8-7.6H263l-.2,1.9a9.4,9.4,0,0,0-3.7,1.1l-1.2-1.4-3.6,3,1.2,1.5a11.1,11.1,0,0,0-1.8,3.4l-1.9-.2-.4,4.7,1.9.2a9.9,9.9,0,0,0,1.1,3.7l-1.4,1.2,3,3.6,1.5-1.2a11.1,11.1,0,0,0,3.4,1.8l-.2,1.9,3.5.3v-5.3a7.4,7.4,0,0,1-5.6-2.7,7.4,7.4,0,0,1,3.5-11.8,7.6,7.6,0,0,1,2.1-.3Z" transform="translate(-48.9)"/><path class="z" d="M97.4,7.2,98.7,6,95.9,2.7,94.6,3.8a14.1,14.1,0,0,0-3.2-1.7V.4L88.3.1v5a6.8,6.8,0,0,1,5.3,2.4,6.9,6.9,0,0,1-.9,9.7h0a7,7,0,0,1-2.4,1.3,6.4,6.4,0,0,1-2,.3v4.9h1.2V22a10.8,10.8,0,0,0,3.5-1l1.1,1.3,3.4-2.8-1.2-1.4A9.4,9.4,0,0,0,98.1,15h1.8l.3-4.4H98.5A9.7,9.7,0,0,0,97.4,7.2ZM88.3.1H87.2L87,1.8a10.2,10.2,0,0,0-3.4,1L82.4,1.5,79.1,4.3l1.1,1.4a8.8,8.8,0,0,0-1.6,3.2l-1.8-.2-.4,4.4h1.8a8,8,0,0,0,1.1,3.4l-1.4,1.2,2.8,3.4L82.1,20a9,9,0,0,0,3.2,1.7l-.2,1.7,3.2.3V18.8a6.7,6.7,0,0,1-5.2-2.5,6.7,6.7,0,0,1,.8-9.6,7.2,7.2,0,0,1,2.4-1.4,7.1,7.1,0,0,1,2-.2Z" transform="translate(-48.9)"/><path class="y" d="M328.6,118.1h0v-8.7c4.4,1.9,7.5,5.8,7.5,10.3a11.2,11.2,0,0,1-5.4,9.2l1.8,4.7-3.9-2.9v-9h0a1.8,1.8,0,1,0,0-3.6Zm0,0a1.8,1.8,0,0,0,0,3.6v9l-.6-.5a14.4,14.4,0,0,1-5.1.9h0v-9.4h0a1.8,1.8,0,1,0,0-3.6h0v-9.8h0a15.2,15.2,0,0,1,5.7,1.1Zm-5.7-9.8v9.8a1.8,1.8,0,1,0,0,3.6v9.4a13.7,13.7,0,0,1-5.8-1.2v-8.2a1.8,1.8,0,1,0,0-3.6v-8.7A15.4,15.4,0,0,1,322.9,108.3Zm-5.8,1.1v8.7a1.8,1.8,0,0,0,0,3.6v8.2c-4.4-1.8-7.4-5.7-7.4-10.2S312.7,111.3,317.1,109.4Z" transform="translate(-48.9)"/><polygon class="z" points="289.2 71.3 281.2 71.3 281.2 67.7 272 67.7 272 74.6 298.4 74.6 298.4 67.7 289.2 67.7 289.2 71.3"/><rect class="z" x="282.7" y="67.7" width="5" height="2.03"/><path class="z" d="M340.6,52.4h-6.5v2.3h4.2v2.7h-4.2v8.8h13.3V57.4h-6.8Zm-6.5,0h-6.4v5h-6.8v8.8h13.2V57.4h-4.2V54.7h4.2Z" transform="translate(-48.9)"/><path class="y" d="M412,0h-4.6V1.1h3c.1,0,.2.2.2.3h0c0,.2-.1.3-.2.3h-3V3.3H414V26.9h-6.6v.9h0a1.2,1.2,0,0,1,1.2,1.3,1.2,1.2,0,0,1-1.2,1.2h0v.9H412a3.2,3.2,0,0,0,3.2-3.2V3.2A3.2,3.2,0,0,0,412,0Zm-4.6,0h-4.7a3.1,3.1,0,0,0-3.1,3.2V28a3.1,3.1,0,0,0,3.1,3.2h4.7v-.9a1.2,1.2,0,0,1-1.3-1.2,1.3,1.3,0,0,1,1.3-1.3v-.9h-6.7V3.3h6.7V1.7h-3a.3.3,0,0,1-.3-.3h0a.3.3,0,0,1,.3-.3h3Z" transform="translate(-48.9)"/><path class="y" d="M399.9,111.8H401c2.9,0,3-3.3,0-3.3h-1.1v.3a1.4,1.4,0,0,1,1.4,1.4,1.4,1.4,0,0,1-1.4,1.4Zm-24,0h24v-.2a1.4,1.4,0,0,1-1.3-1.4,1.3,1.3,0,0,1,1.3-1.4v-.3h-24v.3a1.4,1.4,0,0,1,1.4,1.4,1.4,1.4,0,0,1-1.4,1.4Zm-1,0h1v-.2a1.4,1.4,0,0,1-1.4-1.4,1.4,1.4,0,0,1,1.4-1.4v-.3h-1C371.9,108.5,372,111.8,374.9,111.8Z" transform="translate(-48.9)"/><path class="y" d="M389.8,97.2a1.4,1.4,0,0,0-1.4,1.4,1.4,1.4,0,0,0,1.4,1.4,1.4,1.4,0,0,0,1.4-1.4A1.5,1.5,0,0,0,389.8,97.2Z" transform="translate(-48.9)"/><path class="y" d="M400.5,109.8,391,99.2a.6.6,0,0,0-.8,0h0a.5.5,0,0,0-.1.8l9.5,10.6a.5.5,0,0,0,.8,0h0A.5.5,0,0,0,400.5,109.8Z" transform="translate(-48.9)"/><path class="y" d="M386.1,97.2a1.4,1.4,0,0,1,1.4,1.4,1.4,1.4,0,1,1-2.8,0A1.4,1.4,0,0,1,386.1,97.2Z" transform="translate(-48.9)"/><path class="y" d="M375.4,109.8l10.3-11.5a.5.5,0,0,1,.8-.1h0a.6.6,0,0,1,.1.9l-10.3,11.5c-.3.2-.6.3-.9,0h0A.6.6,0,0,1,375.4,109.8Z" transform="translate(-48.9)"/><path class="y" d="M395.9,112.8h4.9l-1.3,7.3c-.3,1.6-1,2.8-3.4,2.8h-.2v-2.2a1.1,1.1,0,0,0,.7-.9,18.7,18.7,0,0,1,.4-2.5l.3-2.5c.1-.6-.4-1-1-1h-.4Zm-3.9,0h3.9v1a1.4,1.4,0,0,0-.8,1l-.3,2.5a22.9,22.9,0,0,1-.2,2.5.9.9,0,0,0,.9,1h.4v2.2H392v-2.1a1.4,1.4,0,0,0,.8-1,19.5,19.5,0,0,1,.2-2.5,19.5,19.5,0,0,1,.2-2.5,1,1,0,0,0-1.1-1H392Zm-4.1,0H392v1a1,1,0,0,0-1,1,20.1,20.1,0,0,0-.1,2.5c-.1.8-.1,1.6-.2,2.5a1.1,1.1,0,0,0,1,1h.3v2.1h-4.1v-2.1a1,1,0,0,0,1-1c0-.9.1-1.7.1-2.5v-2.5a1,1,0,0,0-1.1-1h0Zm-4,0h4v1a1,1,0,0,0-1.1,1c0,.8.1,1.6.1,2.5v2.5a1.1,1.1,0,0,0,1,1h0v2.1h-4v-2.1h.2a1,1,0,0,0,1-1c0-.9-.1-1.7-.1-2.5a21.8,21.8,0,0,1-.1-2.5,1.1,1.1,0,0,0-1-1Zm-4,0h4v1h-.2a.9.9,0,0,0-1,1c.1.8.1,1.6.2,2.5s.1,1.6.2,2.5a1.3,1.3,0,0,0,.8,1v2.1h-4v-2.2h.5a1,1,0,0,0,.9-1l-.3-2.5-.3-2.5a1.2,1.2,0,0,0-.8-1Zm-.1,10.1c-2.4,0-3.2-1.2-3.5-2.8l-1.2-7.3h4.8v1h-.4a.8.8,0,0,0-.9,1l.3,2.5.3,2.5a1.6,1.6,0,0,0,.7.9v2.2Z" transform="translate(-48.9)"/></g></svg>