<svg xmlns="http://www.w3.org/2000/svg" height="350px" width="350px" viewBox="0 0 133 219.28"><defs><style>.cls-1{fill:#fabba1;}.cls-1,.cls-10,.cls-11,.cls-12,.cls-13,.cls-2,.cls-3,.cls-4,.cls-5,.cls-6,.cls-7,.cls-8,.cls-9{fill-rule:evenodd;}.cls-2{fill:#404041;}.cls-3{fill:#fbd2c0;}.cls-4{fill:#bbbdbf;}.cls-5{fill:#e6e7e8;}.cls-6{fill:#e4e4e4;}.cls-7{fill:#e8b6a4;}.cls-8{fill:#a15641;}.cls-9{fill:#f9b79c;}.cls-10{fill:#f48245;}.cls-11{fill:#ced0d1;}.cls-12{fill:#fff;}.cls-13{fill:#484848;}</style></defs><title>detail_1</title><g id="Layer_2" data-name="Layer 2"><g id="OBJECTS"><path class="cls-1" d="M112.06,72.93c.27,0,2-.08,3.54,0s3.65,2.29,3.62,2.48a12.56,12.56,0,0,1-.79,3.71c-.6,1.14-3.56,2.73-5.75,2.59a15,15,0,0,1-4.6-1.29Z"/><path class="cls-2" d="M133.29,31.3c-1,2-19.82,45.37-19.82,45.37l1.26.74L133.94,31.6Z"/><path class="cls-3" d="M120.66,73.85c-.41-1.3-1.19-4.9-2.28-4.7s-.64,3.56.06,5.64,1.47,2.7,2,1.65A4.72,4.72,0,0,0,120.66,73.85Z"/><path class="cls-3" d="M107.71,80.56c.43-2,3-8.78,3-8.78s6-4.41,6.75-2.77-4.25,4.14-4.25,4.14a6.39,6.39,0,0,1-.11,3.21C112.56,78.43,107.71,80.56,107.71,80.56Z"/><path class="cls-1" d="M117.48,69.26c.21,1.62-4.32,3.89-4.32,3.89a8.1,8.1,0,0,1,.1,3.27c-.4,1.71-1.59,2.06-.88-.9a7.82,7.82,0,0,0,0-3.22C115.1,71.47,115.51,71.07,117.48,69.26Z"/><path class="cls-1" d="M119.25,74.72c-.6-1.8-1-4.59-.41-5.41a.55.55,0,0,0-.45-.13c-1,.18-.69,3.14-.07,5.22,0,.14.08.28.13.41l.47.22.09.06a3.86,3.86,0,0,1,.52.37C119.44,75.24,119.35,75,119.25,74.72Z"/><path class="cls-3" d="M119.07,74.75c-1.1-.53-3.8-2.3-4.64-1.33s1.45,2.81,3.22,3.64,2.8.65,2.68-.44A3.1,3.1,0,0,0,119.07,74.75Z"/><path class="cls-1" d="M118.24,76.41c-1.55-.72-3.5-2.23-3.4-3.24a.77.77,0,0,0-.41.25c-.56.64.26,1.67,1.39,2.53a10.25,10.25,0,0,0,1.68,1l.15.08c.24.11.47.2.69.28,1.2.42,1.93.27,2-.44a3.14,3.14,0,0,1-1.65-.3Z"/><path class="cls-3" d="M117.66,76.31c-1.1-.53-3.8-2.3-4.64-1.33s1.45,2.82,3.22,3.64,2.8.65,2.68-.44A3.1,3.1,0,0,0,117.66,76.31Z"/><path class="cls-1" d="M116.83,78c-1.55-.72-3.5-2.23-3.4-3.24A.77.77,0,0,0,113,75c-.56.64.26,1.67,1.4,2.53a9.77,9.77,0,0,0,1.67,1l.15.08a6.25,6.25,0,0,0,.69.28c1.2.43,1.93.27,2-.44a3.16,3.16,0,0,1-1.66-.3Z"/><path class="cls-3" d="M116.34,78.07c-1.09-.53-3.79-2.3-4.64-1.33s1.45,2.81,3.23,3.64,2.8.65,2.67-.44A3.1,3.1,0,0,0,116.34,78.07Z"/><path class="cls-1" d="M115.52,79.73c-1.55-.72-3.5-2.23-3.4-3.24a.76.76,0,0,0-.42.25c-1,1.15,2.22,3.15,3.07,3.56l.16.08a7,7,0,0,0,.68.28c1.2.43,1.93.27,2-.44a3.16,3.16,0,0,1-1.66-.3Z"/><path class="cls-2" d="M34.16,132.79c.31,25.3,1.85,56.46-3.65,81.08l4.74.16c7.42-19,17.34-60.86,20.31-59.61,1.66-2.12,6.27,18.4,1.09,59.69l5.91-.47s9.65-42.33,10.12-59.14S70.5,134,70.5,134Z"/><path class="cls-2" d="M59.18,212.34a6.11,6.11,0,0,0-2.53,1.77c-1.25,1.65-2.38,5.19-1,5.17l16.4-.22s2.08-1.12-1.22-3.58S59.18,212.34,59.18,212.34Z"/><path class="cls-2" d="M33,212.34a6.11,6.11,0,0,0-2.53,1.77c-1.25,1.65-2.38,5.19-1,5.17l16.4-.22s2.09-1.12-1.21-3.58S33,212.34,33,212.34Z"/><path class="cls-4" d="M51,73.54A29.58,29.58,0,0,0,49.68,70L36,71.43,36,76.17Z"/><path class="cls-5" d="M54.94,85.87C56.18,82.76,59,73.65,59,73.65S85.31,95.12,86.56,94.49s22-16.74,22-16.74l3.74,3.89s-25.83,25-27.23,24.38S54.94,85.87,54.94,85.87Z"/><path class="cls-5" d="M34.63,83.54c-1.17-.94-7-6.15-7-6.15S14.16,97.08,11.36,101,5.41,109.88,10,112.33l26.3,13.93,1.71-4.83L18.68,106.1Z"/><path class="cls-6" d="M31.22,123.54,35.84,126l0-6.33L18.68,106.1,29.39,90.94,28.16,87.3S16.93,104.52,16.66,106s14.66,12.7,14.66,12.7Z"/><path class="cls-5" d="M27.63,77.39s2.25,18.21,3.34,24,1.09,19.92,1.4,26.14.47,8.87.47,8.87c-1.9,2.32,40.23,11.27,39.7-4.57a180.08,180.08,0,0,0-3.28-28.89A128.83,128.83,0,0,0,59,73.65C44.35,73.44,42.14,73.35,27.63,77.39Z"/><path class="cls-3" d="M37.66,66c3.39,8.19-1.44,7.9-2.68,9.42-1.8,2.2,14.26,4.58,17.86-1.87-4.48.51-7.83-3.43-6.69-7.08Z"/><path class="cls-2" d="M12,55.47a29.63,29.63,0,0,0,2.72,7.38c2,3.63,3.91,4.79,3.84,4.42s-.47-1.8-.25-1.58,1.22,1.73,5.41,2.7,5.71.49,5.28.26S18.42,56.29,18.42,56.29Z"/><path class="cls-2" d="M55.72,18.42c.43.37,5.24,4.34,6.46,8.61s-1.73,12.08-1.72,11.66S51.7,20.52,51.7,20.52Z"/><path class="cls-3" d="M4.66,38.24S10.43,56.05,12,58.42s5.31,1.14,5.31,1.14a9.69,9.69,0,0,0,4.57,6.63c12,6.94,28.38,5.12,38.09-5.55,4.16-4.57,4.59-11.91,3.16-16.18a20.35,20.35,0,0,0-2.66-5.77s.29-7-1.36-11.46-3.3-6.89-9.18-8.46-30.77,2-37.8,7A17.79,17.79,0,0,0,4.66,38.24Z"/><path class="cls-2" d="M47.36,39.34c.09-1.25,2.12-3.05,5.55-4s6.43-.17,6,1.29C52.35,36.89,47.33,39.89,47.36,39.34Z"/><path class="cls-2" d="M18.6,44.27a59.74,59.74,0,0,1,2.27,8.46c.24,1.91-1.77-.44-2-.38-.41.12-4.28-3.73-4.28-3.73s-4.58-.45-6,3,5.69,8.65,5.69,8.65C9,60-6.93,41.32,3.43,34.76,8,2.14,37.62,19.23,48.19,7.72c-.06,2.42-1.34,3.77-.83,3.54C49.85,10.15,53.84,9.07,60.22,0c9.35,22.58-6.8,30.94-5.3,30.79A19.62,19.62,0,0,0,58.28,30C56,39.9,26,39.55,19,39.71Z"/><path class="cls-3" d="M7.49,50.75C6,53,8.28,55.37,10.25,57.31s3.12,3.78,6.17,3.48c2.8-.27,3.77-3,3.41-5.43C19,50,12.12,43.57,7.49,50.75Z"/><path class="cls-7" d="M8.82,52.25c-.32,4.8,9.78,9.08,9.32,3.79-.18-2.1-.32-1-1.76-2.14s-.43-1.35-.5-2.43-1.65-1.61-2.33-1.8C11.59,49.13,9,49.71,8.82,52.25Z"/><path class="cls-8" d="M52.49,54.42c0,.41.61,6.81-4.73,7.9S38,58.39,38,58.39C42,59.44,50.32,57.26,52.49,54.42Z"/><path class="cls-2" d="M35.12,50.9c1.11,0,2-1.53,2-3.39s-.91-3.39-2-3.39-2,1.52-2,3.39S34,50.9,35.12,50.9Z"/><path class="cls-2" d="M54.63,46.63c1.11,0,2-1.53,2-3.39s-.91-3.39-2-3.39-2,1.52-2,3.39S53.51,46.63,54.63,46.63Z"/><path class="cls-9" d="M43.28,44.68c5.68,7.19,10.26,3.19,10,5.65C52.49,54.42,41.5,58.62,43.28,44.68Z"/><path class="cls-2" d="M27.6,43.87c.09-1.25,2.12-3,5.54-4s6.43-.17,6,1.3C32.59,41.42,27.56,44.42,27.6,43.87Z"/><path class="cls-10" d="M48.79,75.71a37.87,37.87,0,0,1-4.17.23l-2.29.74-.2,3,2.57,1.37,3.46-.31,1.36-2.69Z"/><path class="cls-11" d="M44.62,75.94s-2.6,5.49-2.8,5.21-8-5.41-8-5.41L36,71.43Z"/><path class="cls-11" d="M47,75.86c.15.24,2.76,4.32,2.72,3.93s3.86-6.2,3.86-6.2L49.68,70Z"/><path class="cls-10" d="M45.91,78.82c-.24.27-1.21,2.26-1.21,2.26l1.22,49.35s7.07,9.47,7.22,9,5.64-9,5.64-9L48.16,80.77Z"/><path class="cls-12" d="M35.58,44.8c.36,0,.71.62.78,1.38s-.15,1.37-.5,1.37-.7-.61-.78-1.37S35.23,44.8,35.58,44.8Z"/><path class="cls-12" d="M55,40.72c.35,0,.7.61.78,1.37s-.15,1.38-.51,1.38-.7-.62-.77-1.38S54.69,40.72,55,40.72Z"/><path class="cls-6" d="M67,94.05c8,5.43,17.27,11.63,18,12,1.4.63,27.23-24.38,27.23-24.38l-1.11-1.15-.83.74c-5.82,5.19-24.23,21.59-24.74,21.82S68.8,89.45,64.09,85.44C65.06,88,66.07,90.93,67,94.05Z"/><path class="cls-12" d="M51.56,55.33c-3,2.37-10,4-13.52,3.06a13.72,13.72,0,0,0,2.42,2.08c3.67-.33,10.29-1.64,11.26-3.29A2.6,2.6,0,0,0,51.56,55.33Z"/><path class="cls-13" d="M48.19,7.72C37.62,19.23,8,2.14,3.43,34.76c0,0,3-8.31,9-13.54S32,17,36.46,16a21.19,21.19,0,0,0,7.68-3.48l-1.36,3.21c5.67.27,12.42-3.54,16.9-12.32,1.24,3.6,3.56,6.72,3.28,12.83C63.5,12,63,6.59,60.22,0,53.84,9.07,49.85,10.15,47.36,11.26,46.85,11.49,48.13,10.14,48.19,7.72Z"/></g></g></svg>