<svg xmlns="http://www.w3.org/2000/svg" xmlns:xlink="http://www.w3.org/1999/xlink" viewBox="0 0 496.24 430.5"><defs><style>.cls-1{fill:#edb08e;}.cls-2{isolation:isolate;}.cls-16,.cls-17,.cls-22,.cls-3{opacity:0.1;}.cls-3{mix-blend-mode:multiply;}.cls-4{fill:#d89371;}.cls-5{fill:#00a8a8;}.cls-22,.cls-6{fill:#fff;}.cls-7{fill:#b3b3b3;}.cls-8{fill:#d6d6d6;}.cls-9{fill:#ccc;}.cls-10{fill:none;stroke:#39b54a;stroke-linecap:round;stroke-linejoin:round;stroke-width:5.79px;}.cls-11{font-size:13.72px;fill:gray;font-family:Montserrat-Bold, Montserrat Bold;font-weight:700;}.cls-12{letter-spacing:0.01em;}.cls-13{letter-spacing:-0.08em;}.cls-14{letter-spacing:0em;}.cls-15{clip-path:url(#clip-path);}.cls-18{fill:#7f7f7f;}.cls-19{fill:#666;}.cls-20{fill:#fbb03b;}.cls-21{clip-path:url(#clip-path-2);}</style><clipPath id="clip-path"><path class="cls-1" d="M268.07,238s12.38-10.59,14.91-15.14S297.89,192.26,303.7,191s24,13.14,31.58,17.44,29.06-.73,34.62,6.08,15.41,24,24.51,42.69,14.66,38.91,20,48.26,12.13,19.71,27.8,41.94,54.07,80.86,54.07,80.86H407.05s-22.49-67.46-34.87-85.4-20.72-17.69-31.08-21S305.82,309,292.5,293.94s-18.23-5.92-24.83-20.07c-3.34-7.14,6.08-8.32,3.05-18.49s14.5-10.6,19.5-5.51c2.31,2.35,6,5.79,3.66,15.1,0,0,9-.45,13.09,3.85,0,0,5.32-.81,9.61,1.11,0,0,12.89-10.71,12.64-22.34s-3.55-17.15-22.25-26c0,0-6.73,8.84-11.83,9.35,0,0-6.76,7.4-10.16,9.7S271.1,246.54,268.07,238Z"/></clipPath><clipPath id="clip-path-2"><path class="cls-1" d="M181.13,175.12A45.54,45.54,0,0,0,156,189.89c-.21.25-.42.51-.62.78-.41.54-.62.85-.62.85s-8.91,1.48-12,6.53c0,0-5.37.33-9.16,3.12a47.43,47.43,0,0,1-10-7.37c-13.32,18.62-16.36,44.59-7.3,65.66,1.41-.74,2.85-1.49,4.31-2.33,9.43-5.4,31.75-20.09,41.59-37.58,8-14.27,14-11.68,17.79-18.5h0c4.24-4.47,5.21-8.4,14.58-13.95C199.68,184.09,193.7,172.29,181.13,175.12Z"/></clipPath></defs><title>form</title><g class="cls-2"><g id="Layer_2" data-name="Layer 2"><g id="OBJECTS"><path class="cls-3" d="M187,185.89a50,50,0,0,0-10.14,3.35c-2.52-.81-6.34-3.26-10.39-6.32a25.22,25.22,0,0,0,9.28-7.2c3.15-.69,5.89-2.57,6.43-6.68,0,0-14.34-7.48-17.77-11.26s-23-23.9-29-23.9c-18.38,0-55.74,28.16-59.73,35.73s-10,25.81-14.93,45.33-6.1,39.74-9.31,49.66-7.69,21.09-18.3,45.29C27.27,323.3,15.34,354.8,5.87,380.24V430.5H77.55c4-31.49,16.19-123.13,23-139.2,7-16.45,14-20.05,21.63-23.92,1.41-.71,2.85-1.43,4.31-2.24l.91-.51.48-.27.48-.28.78-.45.23-.13.94-.56.13-.08,1.08-.65,0,0A160.49,160.49,0,0,0,146.37,252h0c8.25-6.42,16.68-14.43,21.76-23.17,8-13.79,14-11.28,17.79-17.88h0c4.24-4.32,5.21-8.12,14.58-13.48C205.56,194.56,199.58,183.16,187,185.89Zm-38.32,22.16s-5.37.32-9.16,3a47.75,47.75,0,0,1-10-7.11c-.37-.36-.82-.73-1.32-1.13,5.88-4.74,11.51-10.58,14.66-13.3,6.3-5.44,10.25,8.1,18,11.88-.16.21-.24.34-.24.34S151.75,203.16,148.68,208.05Z"/><path class="cls-4" d="M172.5,178.87c-2.3,0-6.93-2.93-11.9-6.82,7.11-3.07,13.84-12.1,9.9-12.1-5.24,0-22.5-15.19-28.53-22.25s-32,8.06-38.47,17.45c0,0-8,20.11,0,25.11h0c-1.7,6.34-3.13,15.72,2,18.92,8,5,25-14.5,31.5-20.32s10.5,9.32,18.8,12.65S177.74,178.87,172.5,178.87Z"/><path class="cls-1" d="M158.54,146c-3.44-3.91-23-24.74-29-24.74-18.38,0-55.74,29.15-59.73,37s-10,26.71-14.93,46.91-6.1,41.13-9.31,51.39-7.69,21.83-18.3,46.87C21.4,317.32,9.47,349.92,0,376.25v52H71.68c4-32.58,16.19-127.42,23-144.06,7-17,14-20.74,21.63-24.74,5.64-21.93,5.64-32.7,7.3-65.66-3.22-3.14-11.59-7.91-12.49-12.54C109,169.85,103.5,160,126.5,146.43c0,0,16.77,10.66,21.85,10.08,0,0,8.18,5.8,12,7.33s14.82,2.85,16-6.16C176.31,157.68,162,149.94,158.54,146Z"/><rect class="cls-3" x="141.97" y="29.87" width="216.06" height="306.89" rx="13.55"/><rect class="cls-5" x="141.97" y="23.96" width="216.06" height="306.89" rx="13.55"/><rect class="cls-6" x="154.48" y="35.04" width="191.04" height="284.72"/><rect class="cls-7" x="210.5" y="86.26" width="116" height="9.6"/><rect class="cls-8" x="210.5" y="103.71" width="116" height="9.6"/><rect class="cls-8" x="172.5" y="121.16" width="154" height="9.6"/><path class="cls-8" d="M210.59,35a4.94,4.94,0,0,0,4.93,4.84h69A4.94,4.94,0,0,0,289.41,35Z"/><path class="cls-8" d="M284.48,10.66H260.66a10.66,10.66,0,0,0-21.32,0H215.52a4.94,4.94,0,0,0-4.94,4.95v16.7a4.94,4.94,0,0,0,4.94,4.94h69a4.94,4.94,0,0,0,4.94-4.94V15.61A4.94,4.94,0,0,0,284.48,10.66ZM250,14.85a4.19,4.19,0,1,1,4.19-4.19A4.2,4.2,0,0,1,250,14.85Z"/><path class="cls-9" d="M210.58,27.89v4.42a4.94,4.94,0,0,0,4.94,4.94h69a4.94,4.94,0,0,0,4.94-4.94V27.89Z"/><path class="cls-8" d="M196.84,91.26v17H177.5v-17h19.34m5-5H172.5v27.05h29.34v-27Z"/><rect class="cls-7" x="210.5" y="146.9" width="116" height="9.6"/><rect class="cls-8" x="210.5" y="164.35" width="116" height="9.6"/><rect class="cls-8" x="172.5" y="181.8" width="154" height="9.6"/><rect class="cls-8" x="172.5" y="257.56" width="68.5" height="9.6"/><rect class="cls-8" x="172.5" y="274.4" width="37.5" height="9.6"/><rect class="cls-8" x="258.29" y="257.56" width="68.5" height="9.6"/><rect class="cls-8" x="258.29" y="274.4" width="37.5" height="9.6"/><path class="cls-8" d="M196.84,151.9v17H177.5v-17h19.34m5-5H172.5v27h29.34v-27Z"/><rect class="cls-7" x="172.5" y="207.54" width="154" height="9.44"/><path class="cls-8" d="M236.21,228.68v17H177.5v-17h58.71m5-5H172.5v27h68.71v-27Z"/><path class="cls-8" d="M321.5,228.68v17H262.79v-17H321.5m5-5H257.79v27H326.5v-27Z"/><polyline class="cls-10" points="204.41 87.22 187.11 104.51 178.09 95.49"/><polyline class="cls-10" points="204.41 146.9 187.11 164.2 178.09 155.18"/><text class="cls-11" transform="translate(171.98 68.81)">REGIST<tspan class="cls-12" x="39.86" y="0">R</tspan><tspan class="cls-13" x="47.31" y="0">A</tspan><tspan class="cls-14" x="54.65" y="0">TION FORM</tspan></text><path class="cls-3" d="M187,185.89a50,50,0,0,0-10.14,3.35,26.27,26.27,0,0,1-5.65-3c-1.7,1.47-3.43,2.89-5.22,4.24a45.73,45.73,0,0,1-10.54,6.41,18.31,18.31,0,0,0,5.45,4.48c-.16.21-.24.34-.24.34s-8.91,1.42-12,6.31a22,22,0,0,0-7,1.79V235.5H142v19.76c1.44-1,2.9-2.12,4.37-3.27h0c8.25-6.42,16.68-14.43,21.76-23.17,8-13.79,14-11.28,17.79-17.88h0c4.24-4.32,5.21-8.12,14.58-13.48C205.56,194.56,199.58,183.16,187,185.89Z"/><path class="cls-3" d="M299.48,322.38h0l.14.11,1.3,1,.52.39,1,.73.6.43.93.66.6.43,1,.66.57.39,1.17.76.39.26,1.56,1,.49.3,1.1.66.63.37,1,.57.65.37,1,.55.63.34,1.08.58.53.28c.52.28,1,.55,1.58.82l.33.17,1.27.64.58.28,1,.49.63.3,1,.45.62.29,1,.45.55.25,1.28.56.24.11,1.48.63.48.2,1,.41.54.22.9.37.54.21.87.34.51.2,1,.37.34.13,1.28.47.27.1.94.34.44.16.73.26.44.15.68.23.41.14.7.23.3.1,1,.3c10.36,3.27,18.69,3,31.08,20.88C380,375.8,392,407,399.63,428.26h82.59c-12.6-19-30.53-45.81-40.05-59.27-15.67-22.13-22.49-32.44-27.8-41.75-3.24-5.69-6.58-15.42-10.77-26.38a4.11,4.11,0,0,0,.15-.46c.75-2.78-.5-5.51-2.78-6.28-2-4.92-4.14-10-6.56-14.91-9.1-18.61-19-35.72-24.51-42.49-3.45-4.22-13.06-3.88-21.66-4.05h-.14c-.77,0-1.54,0-2.29-.06h-.26l-1,0h-.27l-1-.06-.2,0-.95-.08-.22,0-.8-.09-.33,0-.78-.12-.29,0-.7-.13-.32-.06-.66-.16-.3-.08-.57-.17-.33-.11c-.16-.05-.3-.11-.45-.17L336,231c-.26-.12-.51-.24-.75-.37l-.73-.43-.33-.2-.46-.28-.43-.27-.42-.26-.53-.33-.35-.23-.58-.38-.36-.24-.66-.43-.31-.21-.77-.51-.24-.16-1-.67c-8.61-5.79-20-13.71-24.41-12.76-5.81,1.26-18.2,27.17-20.72,31.69-1.79,3.21-8.53,9.44-12.31,12.79a1.29,1.29,0,0,0-.44.4l-1.64,1.43-8.19-.91a6,6,0,0,0-2.17-.2A2.72,2.72,0,0,0,257,259a2.81,2.81,0,0,0-.48.44l-.06.1-2.66-.3c-.67-.17-1.26-.1-1.47.68s.26,1.14.93,1.33l2.45,1.07c.19,1.42,1.41,2.17,3,2.62l8.59,3.75-.3,1.11a1.19,1.19,0,0,0,.72,1.53l2.57.69a1.14,1.14,0,0,0,1.25-.63l.34.1c-1.38,1.39-2,3.35-1.18,6,3,10.12-6.39,11.3-3.05,18.41,6.6,14.07,11.52,5,24.83,20a61,61,0,0,0,7,6.6Zm-13.83-60.15c.54-.41,1.15-.92,1.77-1.48a8.67,8.67,0,0,0,1.4,2.27Zm33.65,3.38a63.31,63.31,0,0,0,7.65-7c.25.48.47,1,.67,1.46-3.62,4.3-7.87,8.63-7.87,8.63a9.69,9.69,0,0,0,.95,2.22l-10.33-2.56A18,18,0,0,0,319.3,265.61Zm-16.65-2a7.56,7.56,0,0,0,3,3.54l-7.75-1.92A19.53,19.53,0,0,0,302.65,263.64Zm-8.77,23.3a17.39,17.39,0,0,0,.25-9.1L322.31,286a49.2,49.2,0,0,1-5.48,5.71l0,0-.16.14h0l-.07.05h0c-.28-.12-.55-.23-.83-.33l-.3-.09-.57-.18c-.11,0-.23-.06-.34-.09l-.53-.13-.34-.07-.54-.1-.31-.05-.56-.08-.26,0-.59-.06h-.19l-.64,0h-.8a19.1,19.1,0,0,0-2.8.17C302.9,286.5,293.88,286.94,293.88,286.94Z"/><path class="cls-4" d="M326,222.15v-6.48H306.21c-2.21,3.61-3.48,6.11-4.11,7.26-2.53,4.55-14.91,15.14-14.91,15.14,3,8.56,13.52,5,16.91,2.65S314.26,231,314.26,231C314.59,231,329.78,220.49,326,222.15Z"/><path class="cls-4" d="M341.23,225v-9.3h-18c-3.36,5.13-5.12,8.66-5.91,10.08-2.53,4.55-14.91,15.14-14.91,15.14,3,8.57,13.52,5,16.92,2.65s10.16-9.7,10.16-9.7C329.78,233.8,345,223.32,341.23,225Z"/><path class="cls-4" d="M352.29,230.71v-15H340.53a124.58,124.58,0,0,0-8.29,15.82c-2.12,4.55-12.49,15.14-12.49,15.14,2.54,8.56,11.32,5,14.17,2.65s8.51-9.7,8.51-9.7C342.7,239.54,355.43,229.05,352.29,230.71Z"/><path class="cls-1" d="M268.07,238s12.38-10.59,14.91-15.14S297.89,192.26,303.7,191s24,13.14,31.58,17.44,29.06-.73,34.62,6.08,15.41,24,24.51,42.69,14.66,38.91,20,48.26,12.13,19.71,27.8,41.94,54.07,80.86,54.07,80.86H407.05s-22.49-67.46-34.87-85.4-20.72-17.69-31.08-21S305.82,309,292.5,293.94s-18.23-5.92-24.83-20.07c-3.34-7.14,6.08-8.32,3.05-18.49s14.5-10.6,19.5-5.51c2.31,2.35,6,5.79,3.66,15.1,0,0,9-.45,13.09,3.85,0,0,5.32-.81,9.61,1.11,0,0,12.89-10.71,12.64-22.34s-3.55-17.15-22.25-26c0,0-6.73,8.84-11.83,9.35,0,0-6.76,7.4-10.16,9.7S271.1,246.54,268.07,238Z"/><g class="cls-15"><path class="cls-16" d="M397.14,282.07l-7.86-2.5-.09-.31c0-.11-.07-.21-.11-.31s-.1-.28-.16-.42a2.92,2.92,0,0,0-.14-.31l-.18-.38c-.12-.22-.24-.42-.37-.62l-.18-.26c-.09-.12-.17-.25-.26-.36s-.15-.17-.22-.25-.19-.22-.29-.32a2.39,2.39,0,0,0-.23-.22l-.33-.29-.24-.19a3.19,3.19,0,0,0-.38-.26l-.25-.16c-.14-.09-.29-.16-.44-.24l-.23-.11a6.15,6.15,0,0,0-.71-.28l-56.5-18a1.39,1.39,0,0,0-.87-1.47l-3.48-1.18a1.43,1.43,0,0,0-1.65.74l-62.63-19.9a1.26,1.26,0,0,0-.76-1.36l-2.82-1a1.35,1.35,0,0,0-1.63,1l-.41,1.22-10.31-1.83a4.58,4.58,0,0,0-3.75,0,2.84,2.84,0,0,0-.65.56l-2.94-.52c-.74-.23-1.4-.2-1.69.66s.21,1.29.94,1.55l2.65,1.38c.11,1.6,1.42,2.52,3.13,3.14l9.3,4.81-.41,1.22a1.35,1.35,0,0,0,.7,1.77l2.81,1a1.3,1.3,0,0,0,1.45-.62l61.82,22.25a1.43,1.43,0,0,0,.86,1.6l3.48,1.18a1.41,1.41,0,0,0,1.59-.64L378.48,292a7.5,7.5,0,0,0,7-1.28l2.22.8h0l5.53,2c2.68,1,5.76-.86,6.84-4S399.85,282.93,397.14,282.07Z"/></g><g class="cls-17"><path d="M345.16,316.24c-6.06-2.07-26.15-9.13-45.68-15.67,13.76,11.24,32.87,18.54,41.62,21.31,10.36,3.29,18.69,3,31.08,21s34.87,85.4,34.87,85.4h6.54s-25-70.07-37.35-89.41S355.52,319.78,345.16,316.24Z"/></g><path class="cls-18" d="M394,281.87,406,285.33c2.74.79,5.69-1.23,6.57-4.48s-.68-6.47-3.44-7.16l-12.06-3Z"/><path class="cls-18" d="M394,281.87,406,285.33c2.74.79,5.69-1.23,6.57-4.48s-.68-6.47-3.44-7.16l-12.06-3Z"/><path class="cls-18" d="M394,281.87,406,285.33c2.74.79,5.69-1.23,6.57-4.48s-.68-6.47-3.44-7.16l-12.06-3Z"/><path class="cls-19" d="M403.6,278.45a10.42,10.42,0,0,0-.19-6.18l-6.36-1.58-3,11.18,6.29,1.82A10.37,10.37,0,0,0,403.6,278.45Z"/><path class="cls-18" d="M244.61,236.89l3.49,1.54.91-3.37-3.8-.42c-.74-.19-1.4-.12-1.64.77S243.87,236.68,244.61,236.89Z"/><path class="cls-18" d="M250.67,241l10.74,4.72,2.78-10.34-11.66-1.31c-2.3-.57-4.32-.35-5.05,2.36S248.39,240.37,250.67,241Z"/><path class="cls-19" d="M262.63,241.23l1.56-5.82-11.66-1.31c-2.3-.57-4.32-.35-5.05,2.36a4.2,4.2,0,0,0-.12.66Z"/><path class="cls-18" d="M263.34,247.79l127.78,37c4.24,1.22,8.81-1.9,10.17-6.94s-1-10-5.32-11.09L266.88,234.61Z"/><path class="cls-19" d="M401.63,275.81c.33-4.29-1.95-8.16-5.66-9.08L266.88,234.61l-1.24,4.63Z"/><path class="cls-20" d="M348.79,263.7a2.39,2.39,0,0,0,1.64,2.92l41.62,12a3.24,3.24,0,0,0,1.67-6.19L351.67,262a2.38,2.38,0,0,0-2.88,1.69Z"/><path class="cls-20" d="M333.93,250l3.55,1a1.52,1.52,0,0,1,.9,1.92l-4,14.91a1.52,1.52,0,0,1-1.74,1.21l-3.55-1a1.51,1.51,0,0,1-.9-1.92l4-14.9A1.5,1.5,0,0,1,333.93,250Z"/><path class="cls-20" d="M264.83,232.94l2.88.77a1.37,1.37,0,0,1,.81,1.72l-3.36,12.46A1.35,1.35,0,0,1,263.6,249l-2.87-.78a1.35,1.35,0,0,1-.81-1.72L263.27,234A1.36,1.36,0,0,1,264.83,232.94Z"/><path class="cls-1" d="M296.14,265c-1.35-.07-2.26,0-2.26,0,2.31-9.31-1.35-12.75-3.66-15.1-5-5.09-22.54-4.67-19.5,5.51s-6.39,11.35-3.05,18.49c6.6,14.15,11.52,5.06,24.83,20.07,1.13,1.27,2.35,2.5,3.64,3.7Z"/><path class="cls-1" d="M296.14,199.06c-5.53,8.42-11.49,20.77-13.16,23.77-2.53,4.55-14.91,15.14-14.91,15.14,3,8.57,13.52,4.95,16.91,2.65s10.16-9.7,10.16-9.7a5.25,5.25,0,0,0,1-.21Z"/><path class="cls-16" d="M328.11,203.81h0c.23.16,8.16,7,26.61,14.73s-1.4-8-1.4-8h0c-7-.13-14.25,0-18-2.09C333.42,207.37,330.91,205.7,328.11,203.81Z"/><path class="cls-16" d="M307,221.57a11.4,11.4,0,0,1-3.17-5.31s-.58,5.57,1.19,7.67Z"/><path class="cls-16" d="M267.67,273.87s2.78-7.29,9.35-7.14c0,0-8,4.11-8.67,8.53Z"/><path class="cls-1" d="M181.13,175.12A45.54,45.54,0,0,0,156,189.89c-.21.25-.42.51-.62.78-.41.54-.62.85-.62.85s-8.91,1.48-12,6.53c0,0-5.37.33-9.16,3.12a47.43,47.43,0,0,1-10-7.37c-13.32,18.62-16.36,44.59-7.3,65.66,1.41-.74,2.85-1.49,4.31-2.33,9.43-5.4,31.75-20.09,41.59-37.58,8-14.27,14-11.68,17.79-18.5h0c4.24-4.47,5.21-8.4,14.58-13.95C199.68,184.09,193.7,172.29,181.13,175.12Z"/><g class="cls-21"><path class="cls-22" d="M188.11,180.14c-6.4,1.88-13.14,7.15-11.78,8.67s7.68,7.36,9.34,5.62,10.59-5.37,8.26-9.43S190,179.6,188.11,180.14Z"/><g class="cls-17"><path d="M169.67,198.25a11.72,11.72,0,0,1,3.35.8,16.34,16.34,0,0,1,3,1.59,16,16,0,0,1,2.61,2.18,11.34,11.34,0,0,1,2,2.8,26.44,26.44,0,0,1-3-1.57c-.93-.56-1.84-1.15-2.74-1.75s-1.77-1.22-2.65-1.88A24.22,24.22,0,0,1,169.67,198.25Z"/></g></g><path class="cls-16" d="M75.33,330.84C71,362.26,62.94,409.08,59.67,428.26h12c4-32.58,16.19-127.42,23-144.06,7-17,14-20.74,21.63-24.74,1.41-.74,2.85-1.49,4.31-2.33a159.17,159.17,0,0,0,19.83-13.6c-22.91,8.66-38.65,15.43-46.5,23.2C89.4,271.28,80.67,291.84,75.33,330.84Z"/></g></g></g></svg>